<svg width="40" height="40" viewBox="0 0 40 40" fill="none" xmlns="http://www.w3.org/2000/svg">
<g clip-path="url(#clip0)">
<path d="M32.644 0C28.8529 0 25.7229 2.88398 25.3316 6.57344H20.2205C19.789 6.57344 19.4392 6.9232 19.4392 7.35469C19.4392 7.78617 19.789 8.13594 20.2205 8.13594H30.758L26.1727 12.723C25.3216 13.2004 23.9036 13.1888 23.0856 12.6847C21.7402 11.8573 19.6344 11.8574 18.292 12.6847C17.4507 13.2022 15.9746 13.2021 15.1339 12.6851C14.2641 12.1491 13.0744 11.9606 11.9783 12.1189L9.05493 8.13602H13.2049C13.6363 8.13602 13.9861 7.78625 13.9861 7.35477C13.9861 6.92328 13.6363 6.57352 13.2049 6.57352H7.90806L3.70767 0.850547C3.45228 0.502734 2.96345 0.427578 2.61556 0.682969C2.26775 0.938281 2.19267 1.42719 2.44798 1.77508L5.96985 6.57344H0.781418C0.46548 6.57344 0.180637 6.76375 0.0596994 7.05562C-0.0612381 7.3475 0.00555877 7.68352 0.228918 7.90695L6.21978 13.8998C6.22759 13.9077 6.23509 13.9157 6.24329 13.9233L11.2744 18.956L12.8495 22.6487C13.2737 23.6432 13.8109 24.2596 15.1758 24.2596H15.9314V33.4159L9.10728 38.5966C8.84017 38.7994 8.73228 39.1501 8.83923 39.468C8.94618 39.786 9.24423 40.0001 9.5797 40.0001H23.8434C24.1788 40.0001 24.4768 39.786 24.5839 39.468C24.6909 39.1502 24.5831 38.7995 24.3159 38.5966L17.4939 33.4159V24.2596H18.2495C19.6145 24.2596 20.1516 23.6432 20.5759 22.6487L22.1509 18.9561L27.182 13.9234C27.1902 13.9159 27.1977 13.9077 27.2056 13.8998L28.0248 13.0802C29.328 14.1371 30.9411 14.7117 32.6438 14.7117C36.7 14.7117 40 11.4114 40 7.35477C40.0002 3.2993 36.7002 0 32.644 0V0ZM7.25267 12.723L2.66712 8.13594H7.11681L10.4206 12.6373C10.3934 12.653 10.3659 12.6686 10.3391 12.685C9.52173 13.1887 8.10368 13.2004 7.25267 12.723ZM21.523 38.4375H11.9009L16.7127 34.7845L21.523 38.4375ZM19.1388 22.0355C18.8829 22.6352 18.7999 22.697 18.2496 22.697H15.1759C14.6256 22.697 14.5425 22.6352 14.2867 22.0355L13.1164 19.2917H20.3091L19.1388 22.0355ZM21.168 17.7293H12.2574L9.15056 14.6214C9.87962 14.5686 10.588 14.367 11.1582 14.0155C11.9998 13.498 13.4745 13.4978 14.3148 14.0155C15.6594 14.8425 17.7659 14.8424 19.1112 14.0152C19.9508 13.4978 21.4256 13.498 22.2666 14.0152C22.8372 14.3668 23.5456 14.5685 24.2748 14.6214L21.168 17.7293ZM26.9051 6.57344C27.0423 5.55953 27.4438 4.62891 28.0363 3.85141L30.758 6.57344H26.9051ZM31.8627 13.0963C30.868 12.963 29.9337 12.5769 29.1371 11.9677L31.8627 9.24125V13.0963ZM31.8627 5.46844L29.1413 2.74664C29.9187 2.15422 30.8492 1.75289 31.8627 1.61563V5.46844ZM38.3842 6.57344H34.5299L37.2528 3.85023C37.8459 4.62797 38.2466 5.55945 38.3842 6.57344ZM33.4252 1.61664C34.4389 1.75391 35.3701 2.15344 36.1477 2.7457L33.4252 5.46844V1.61664ZM33.4252 13.095V9.24102L36.1476 11.9637C35.3698 12.5561 34.4391 12.9577 33.4252 13.095ZM37.2528 10.8591L34.5299 8.13594H38.3842C38.2466 9.15008 37.8458 10.0815 37.2528 10.8591Z" fill="black"/>
<path d="M16.7126 8.13594H16.717C17.1485 8.13594 17.4961 7.78617 17.4961 7.35469C17.4961 6.9232 17.1441 6.57344 16.7126 6.57344C16.2812 6.57344 15.9314 6.9232 15.9314 7.35469C15.9314 7.78617 16.2811 8.13594 16.7126 8.13594Z" fill="black"/>
</g>
<defs>
<clipPath id="clip0">
<rect width="40" height="40" fill="white"/>
</clipPath>
</defs>
</svg>
