<svg width="40" height="40" viewBox="0 0 40 40" fill="none" xmlns="http://www.w3.org/2000/svg">
<g clip-path="url(#clip0)">
<path d="M37.6448 22.6873C37.3979 22.4779 37.0283 22.5084 36.819 22.7552C36.6097 23.002 36.64 23.3718 36.8869 23.581C38.1551 24.6566 38.8264 25.8605 38.8281 27.0624C38.8293 27.8693 38.54 28.5514 37.9437 29.1477C36.9466 30.1448 35.0912 30.8876 32.4291 31.3555C30.0393 31.7754 27.0464 31.9792 23.2766 31.9717C17.4563 31.9638 13.3505 31.4602 10.7816 30.4361C11.7712 29.732 12.8298 28.887 13.9652 27.8952C14.3088 28.3064 14.8016 28.5781 15.3539 28.6339C16.5011 28.7498 17.5334 27.9005 17.6441 26.7466C17.7181 25.9749 17.7198 25.1979 17.65 24.4323C18.6785 23.4062 19.6063 22.4376 20.4402 21.5188C20.9098 22.3227 21.2333 23.17 21.4028 24.0465C21.5476 24.7934 21.5833 25.5667 21.5088 26.345C21.3988 27.4981 22.2411 28.5305 23.3909 28.6466C24.5353 28.7623 25.5595 27.9195 25.6714 26.7577C25.7852 25.5781 25.7302 24.3975 25.508 23.2487C25.2736 22.0387 24.852 20.8705 24.2528 19.763C25.378 19.7981 26.4785 19.8896 27.5409 20.0352C28.5191 21.2748 29.1223 22.6245 29.3329 24.0507C29.444 24.8034 29.4449 25.5773 29.3355 26.351C29.1734 27.4981 29.9686 28.5673 31.1087 28.7347C32.24 28.9007 33.3127 28.1073 33.476 26.9523C33.6422 25.7765 33.6401 24.5948 33.4696 23.44C33.367 22.7453 33.202 22.058 32.9772 21.385C33.56 21.6088 34.1155 21.8537 34.6385 22.1198C34.9225 22.2643 35.2778 22.1553 35.4264 21.8633C35.5732 21.5749 35.4584 21.2221 35.1699 21.0753C31.9498 19.4366 27.4984 18.5334 22.923 18.576C23.2383 18.1674 23.532 17.7692 23.8042 17.3809C25.5204 14.9327 26.3547 12.9265 26.3547 11.2476C26.3547 10.0932 25.9531 9.10735 25.1612 8.31766C23.5044 6.66524 20.6993 6.40485 17.263 7.5843C13.967 8.71555 10.4355 11.0501 7.31938 14.1577C2.80469 18.6602 0 23.947 0 27.955C0 29.6171 0.506016 31.0003 1.46344 31.9551C2.25758 32.747 3.23414 33.1429 4.38555 33.1428C5.60445 33.1428 7.0193 32.6992 8.62094 31.8123C8.94922 31.6305 9.28633 31.4295 9.63219 31.2104C12.3043 32.5017 16.7739 33.1348 23.2749 33.1436C26.9909 33.1486 30.2285 32.932 32.6319 32.5097C35.5766 31.9922 37.5852 31.1635 38.7723 29.9763C39.5885 29.1601 40.0016 28.1791 39.9999 27.0608C39.9977 25.5045 39.1834 23.9922 37.6448 22.6873ZM31.5352 20.8917C31.912 21.7707 32.1736 22.684 32.3105 23.6111C32.4645 24.6547 32.4663 25.7237 32.3158 26.7882C32.2438 27.2977 31.7805 27.6488 31.2784 27.5751C30.7748 27.5013 30.4237 27.0256 30.4959 26.5151C30.621 25.6302 30.6198 24.7434 30.4922 23.8795C30.3071 22.6257 29.8602 21.4286 29.1616 20.305C29.9845 20.467 30.7781 20.6629 31.5352 20.8917ZM16.4777 26.6347C16.432 27.1129 16.041 27.4732 15.5674 27.4732C15.2774 27.4732 15.0145 27.3402 14.8407 27.1151C15.3861 26.6199 15.9485 26.0926 16.5287 25.5327C16.5294 25.8998 16.5129 26.2679 16.4777 26.6347ZM24.3575 23.4713C24.5583 24.5096 24.608 25.5774 24.505 26.6456C24.4558 27.1566 24.0086 27.5312 23.5042 27.4802C22.9982 27.4291 22.6265 26.9698 22.6755 26.4565C22.7605 25.5665 22.7195 24.6808 22.5534 23.8238C22.3355 22.697 21.8988 21.6158 21.2544 20.6033C21.4999 20.3212 21.7366 20.0437 21.9637 19.771C22.2706 19.7594 22.5804 19.7509 22.8918 19.7478C23.6124 20.918 24.1053 22.1691 24.3575 23.4713ZM14.8162 9.94204C15.7036 10.297 16.5336 10.7576 17.2852 11.3158C18.132 11.9448 18.8891 12.6994 19.5355 13.5586C19.8244 13.9427 19.7785 14.4723 19.4288 14.7906C19.0271 15.1561 18.3848 15.0902 18.0555 14.6523C17.5182 13.9381 16.8903 13.312 16.1893 12.7913C15.1723 12.036 14.0105 11.5056 12.7229 11.2051C13.4192 10.7381 14.119 10.3158 14.8162 9.94204ZM3.31953 21.2363C4.23414 21.5523 5.09336 21.9791 5.87867 22.5095C6.75281 23.0999 7.54313 23.8198 8.22758 24.6494C8.53367 25.0204 8.51203 25.5521 8.17695 25.8862C7.79281 26.2692 7.14867 26.232 6.80016 25.8097C6.23125 25.1202 5.57586 24.5227 4.85219 24.034C4.12797 23.5448 3.32797 23.1643 2.46883 22.8948C2.71953 22.3479 3.00359 21.7938 3.31953 21.2363ZM8.05328 30.7871C5.41352 32.249 3.52867 32.3597 2.29094 31.1253C1.54836 30.3848 1.17188 29.3181 1.17188 27.955C1.17188 26.7578 1.46789 25.4055 2.01273 23.9803C2.80398 24.2175 3.53719 24.5601 4.19625 25.0052C4.8268 25.431 5.39875 25.9527 5.89617 26.5556C6.68188 27.5078 8.13477 27.5831 9.00445 26.7159C9.76992 25.9526 9.82453 24.7435 9.13141 23.9035C8.37547 22.9874 7.5018 22.1917 6.53453 21.5384C5.73125 20.9959 4.85852 20.5527 3.93383 20.2127C4.41406 19.4522 4.94906 18.6908 5.53437 17.9389C6.73133 18.0064 8.36961 18.3163 9.88047 19.3367C10.5111 19.7625 11.083 20.2841 11.5803 20.887C12.3189 21.7821 13.6449 21.9138 14.5353 21.1859C15.4322 20.4527 15.5521 19.1274 14.8156 18.235C14.3502 17.6709 13.8348 17.1473 13.2838 16.6788C13.0374 16.4692 12.6675 16.499 12.4579 16.7456C12.2482 16.992 12.2781 17.3619 12.5247 17.5715C13.0233 17.9955 13.4899 18.4696 13.9116 18.9808C14.2391 19.3777 14.1862 19.9574 13.7934 20.2785C13.3996 20.6006 12.8123 20.5388 12.4841 20.141C11.9152 19.4516 11.2599 18.8541 10.5363 18.3655C9.34937 17.5638 7.94547 17.048 6.42609 16.8469C6.89086 16.3032 7.3807 15.7678 7.89375 15.2445C8.7625 15.4513 9.5925 15.7511 10.3645 16.1391C10.649 16.282 11.0041 16.1713 11.1512 15.8787C11.2965 15.5895 11.1799 15.2373 10.8908 15.092C10.2483 14.7691 9.56992 14.5027 8.8657 14.2928C9.68578 13.5227 10.5296 12.8089 11.3854 12.1599C12.953 12.3449 14.3334 12.8727 15.4905 13.732C16.1013 14.1858 16.6492 14.7324 17.119 15.3568C17.8612 16.3434 19.3115 16.4818 20.2174 15.6573C21.0172 14.9295 21.1266 13.7245 20.4719 12.8541C19.758 11.9052 18.9209 11.0711 17.9838 10.3751C17.4202 9.95649 16.8175 9.58719 16.1827 9.27032C16.6739 9.05133 17.1616 8.85821 17.6436 8.69274C18.943 8.24672 20.1259 8.02501 21.1573 8.02501C22.5 8.02501 23.5855 8.40094 24.334 9.14743C24.9053 9.71719 25.183 10.4041 25.183 11.2476C25.183 12.6577 24.3964 14.4949 22.8448 16.7082C22.0694 17.8144 21.0954 19.1064 20.0934 20.1491C16.6022 23.7823 12.3734 28.3946 8.05328 30.7871Z" fill="black"/>
</g>
<defs>
<clipPath id="clip0">
<rect width="40" height="40" fill="white"/>
</clipPath>
</defs>
</svg>
