<svg width="40" height="40" viewBox="0 0 40 40" fill="none" xmlns="http://www.w3.org/2000/svg">
<g clip-path="url(#clip0)">
<path d="M3.34742 24.742C3.03463 24.8238 2.84741 25.1436 2.92919 25.4563C3.80115 28.7921 5.79346 31.7988 8.53926 33.9227C11.316 36.0706 14.6289 37.2022 18.1334 37.2022C18.2079 37.2022 18.2825 37.2016 18.3572 37.2006C22.4582 37.1443 26.324 35.5062 29.2423 32.5877C32.1607 29.6693 33.7988 25.8035 33.855 21.7025C33.9136 17.4266 32.2772 13.4033 29.2475 10.3735C26.2178 7.34375 22.1951 5.70902 17.9186 5.76615C13.8175 5.82242 9.95173 7.46058 7.03338 10.379C4.11495 13.2974 2.47687 17.1632 2.42076 21.2643C2.41334 21.8031 2.43371 22.3483 2.48132 22.885C2.50996 23.207 2.79496 23.4449 3.1161 23.4163C3.4381 23.3877 3.67597 23.1035 3.64741 22.7815C3.60331 22.2844 3.58435 21.7794 3.59122 21.2803C3.64319 17.4859 5.15969 13.9084 7.86116 11.2068C10.5627 8.50516 14.1402 6.98874 17.9346 6.93669C21.8909 6.88276 25.6154 8.39692 28.4198 11.2013C31.2242 14.0056 32.7387 17.7292 32.6845 21.6865C32.6325 25.4809 31.116 29.0584 28.4146 31.76C25.713 34.4616 22.1355 35.9781 18.3411 36.0301C18.2717 36.0311 18.2031 36.0315 18.134 36.0315C14.891 36.0315 11.8247 34.9844 9.25521 32.9968C6.71302 31.0303 4.86852 28.2472 4.06149 25.1602C3.97994 24.8475 3.66005 24.6602 3.34742 24.742Z" fill="black"/>
<path d="M39.4859 1.82335L38.6418 0.944453C37.9333 0.206964 36.7522 0.187922 36.0091 0.901843L34.8755 1.99059C34.6424 2.21449 34.6349 2.58503 34.8588 2.81814C35.0826 3.05125 35.4532 3.05874 35.6864 2.83484L36.8199 1.74609C37.0978 1.47927 37.5364 1.48348 37.7974 1.75538L38.6415 2.63428C38.7672 2.76508 38.8338 2.93809 38.8291 3.12141C38.8242 3.30723 38.7471 3.48126 38.6116 3.61135L33.8344 8.19978C33.8192 8.21446 33.8048 8.22991 33.7912 8.24606L32.2495 10.0865C31.8484 9.59173 31.42 9.11443 30.9634 8.65781C30.6809 8.3753 30.3899 8.10434 30.0925 7.8429L31.9948 6.37565C32.0115 6.36277 32.0275 6.34896 32.0427 6.33437L33.8853 4.56455C34.1184 4.34065 34.1259 3.97011 33.902 3.737C33.6781 3.50389 33.3077 3.4964 33.0745 3.7203L31.2547 5.46827L29.1651 7.08005C26.015 4.65812 22.1776 3.34547 18.1379 3.34547C14.923 3.34547 11.7633 4.19877 9.00057 5.81313C8.72149 5.97623 8.62745 6.33468 8.79056 6.61375C8.95366 6.89291 9.31226 6.98679 9.59126 6.82384C12.175 5.31413 15.1304 4.51608 18.138 4.51608C22.6702 4.51608 26.9311 6.28099 30.1358 9.48575C33.3404 12.6904 35.1053 16.9513 35.1053 21.4835C35.1053 26.0156 33.3404 30.2765 30.1358 33.4811C26.9311 36.6858 22.6702 38.4508 18.138 38.4508C13.6059 38.4508 9.34504 36.6859 6.14036 33.4811C2.93552 30.2765 1.17062 26.0156 1.17062 21.4834C1.17062 16.2752 3.51373 11.4285 7.5991 8.18605C7.85235 7.98509 7.89465 7.61697 7.69377 7.36373C7.49265 7.11049 7.12461 7.06826 6.87145 7.26914C2.50458 10.735 0 15.9159 0 21.4834C0 26.3282 1.88672 30.8831 5.3125 34.3088C8.73827 37.7346 13.2931 39.6213 18.1379 39.6213C22.9827 39.6213 27.5376 37.7347 30.9635 34.3088C34.3893 30.883 36.2759 26.3282 36.2759 21.4834C36.2759 17.6915 35.12 14.0775 32.9753 11.0431L34.6682 9.0221L39.4225 4.45568C39.7817 4.11066 39.9866 3.64756 39.9994 3.15169C40.0123 2.65332 39.8299 2.18156 39.4859 1.82335Z" fill="black"/>
<path d="M24.406 30.1976C25.5541 29.6854 26.67 29.0958 27.7226 28.4453C29.6486 27.2552 30.8374 25.1936 30.9028 22.9306C30.9682 20.6676 29.9004 18.5408 28.0464 17.2414L26.0686 15.8551C25.1831 15.2345 24.3875 14.495 23.7036 13.6571L20.9173 10.2429C19.723 8.77963 17.8358 8.12518 15.9922 8.53489C14.3521 8.89934 13.0182 10.0552 12.424 11.6268L11.0861 15.1656C10.9552 15.5119 10.7301 15.8132 10.4353 16.0371L9.73767 16.5667C8.14922 17.7723 7.00068 19.4998 6.50356 21.431C6.00636 23.3622 6.17797 25.4296 6.98671 27.2524C8.42782 30.5001 11.6437 32.5367 15.1111 32.5366C15.5804 32.5366 16.0544 32.4993 16.5291 32.4227L16.8234 32.3751C17.1425 32.3236 17.3594 32.0231 17.3079 31.704C17.2563 31.3849 16.9559 31.1678 16.6367 31.2195L16.3424 31.267C12.884 31.8256 9.47724 29.9794 8.05658 26.7776C7.35429 25.195 7.20531 23.3998 7.63703 21.7229C8.06868 20.046 9.06604 18.546 10.4452 17.4992L11.1428 16.9696C11.6132 16.6126 11.9721 16.132 12.181 15.5796L13.5188 12.0409C13.9729 10.8397 14.9924 9.95626 16.2459 9.67773C17.6552 9.36478 19.0975 9.86479 20.0101 10.9832L22.7965 14.3974C23.5482 15.3185 24.423 16.1315 25.3964 16.8137L27.3743 18.2001C28.9048 19.2728 29.7864 21.0286 29.7324 22.8968C29.6784 24.765 28.6969 26.467 27.107 27.4495C26.0986 28.0726 25.0293 28.6375 23.9287 29.1285C23.6335 29.2602 23.5009 29.6062 23.6326 29.9015C23.7648 30.1966 24.1107 30.3291 24.406 30.1976Z" fill="black"/>
<path d="M20.4182 33.1197C21.5173 33.1197 22.4116 32.2255 22.4116 31.1264V25.8739C22.4116 25.8727 22.4116 25.8717 22.4116 25.8705C23.2258 24.8814 23.6716 23.6424 23.6716 22.3562C23.6716 20.8298 23.0635 19.4085 21.9594 18.3539C20.8558 17.3 19.4072 16.7582 17.8774 16.8286C15.0538 16.9585 12.7403 19.2721 12.6104 22.0956C12.5401 23.6244 13.0818 25.0741 14.1358 26.1776C15.1903 27.2817 16.6117 27.8898 18.138 27.8898C18.233 27.8898 18.3288 27.8872 18.425 27.8821V31.1264C18.4249 32.2255 19.3191 33.1197 20.4182 33.1197ZM18.1379 26.7192C16.9345 26.7192 15.8138 26.2397 14.9822 25.3691C14.1513 24.4991 13.7242 23.3556 13.7797 22.1494C13.8821 19.9239 15.7056 18.1004 17.9311 17.998C19.1376 17.9426 20.2806 18.3696 21.1508 19.2005C22.0214 20.032 22.5009 21.1527 22.5009 22.3562C22.5009 23.4304 22.1064 24.4629 21.3901 25.2636C21.388 25.2659 21.3865 25.2683 21.3845 25.2706C21.1495 25.5323 20.8833 25.7655 20.5928 25.9637C20.3257 26.1458 20.2569 26.51 20.4391 26.777C20.5524 26.9432 20.7362 27.0325 20.9231 27.0325C21.0325 27.0325 21.1428 27.0011 21.2409 26.9373V31.1263C21.2409 31.58 20.8719 31.949 20.4181 31.949C19.9645 31.949 19.5954 31.58 19.5954 31.1263V27.6022C19.5954 27.3441 19.4855 27.0971 19.2938 26.9246C19.1256 26.7733 18.9072 26.6904 18.6829 26.6904C18.6512 26.6904 18.6194 26.692 18.5875 26.6954C18.4375 26.7112 18.2861 26.7192 18.1379 26.7192Z" fill="black"/>
</g>
<defs>
<clipPath id="clip0">
<rect width="40" height="40" fill="white"/>
</clipPath>
</defs>
</svg>
