<svg width="40" height="40" viewBox="0 0 40 40" fill="none" xmlns="http://www.w3.org/2000/svg">
<g clip-path="url(#clip0)">
<path d="M14.5958 6.66742C14.804 6.66742 15.0057 6.55609 15.1116 6.36L15.6198 5.41976C15.7736 5.13515 15.6676 4.77976 15.383 4.62593C15.0981 4.47211 14.7429 4.57828 14.5891 4.86273L14.081 5.80296C13.9272 6.08757 14.0332 6.44304 14.3178 6.59679C14.4063 6.64468 14.5016 6.66742 14.5958 6.66742Z" fill="black"/>
<path d="M20.5788 6.14577V5.07702C20.5788 4.75351 20.3165 4.49124 19.993 4.49124C19.6695 4.49124 19.4072 4.75351 19.4072 5.07702V6.14577C19.4072 6.46929 19.6695 6.73155 19.993 6.73155C20.3165 6.73155 20.5788 6.46929 20.5788 6.14577Z" fill="black"/>
<path d="M25.4043 6.65954C25.5041 6.65954 25.6052 6.63399 25.6977 6.5804C25.9775 6.41806 26.0728 6.05962 25.9105 5.77977L25.3743 4.85524C25.212 4.5754 24.8535 4.48017 24.5737 4.64243C24.2938 4.80477 24.1985 5.16321 24.3609 5.44306L24.897 6.36759C25.0057 6.55485 25.2023 6.65954 25.4043 6.65954Z" fill="black"/>
<path d="M40 18.0942V17.5781C40 16.484 39.4489 15.5166 38.6101 14.9375C38.8075 14.778 38.9855 14.5902 39.1379 14.3748C39.6575 13.6399 39.788 12.6934 39.4872 11.843C38.7606 9.78914 37.2506 6.83141 34.183 4.40437C30.6461 1.60609 25.8771 0.144062 20.0084 0.0591406C20.0028 0.0590625 19.9971 0.0590625 19.9915 0.0591406C17.3391 0.0975 14.882 0.422031 12.6884 1.02367C12.3765 1.10922 12.1929 1.43156 12.2784 1.74352C12.364 2.05547 12.6863 2.23922 12.9983 2.15352C15.0941 1.57867 17.4497 1.2682 19.9999 1.2307C32.6729 1.41742 36.9572 8.20414 38.3826 12.2337C38.5594 12.7334 38.4859 13.2673 38.1812 13.6984C37.879 14.1259 37.4051 14.371 36.881 14.371H3.11867C2.59266 14.371 2.11625 14.1244 1.8118 13.6945C1.51094 13.2697 1.43703 12.7459 1.60891 12.2574C2.64805 9.30461 5.03438 5.30336 10.5015 3.01055C10.7998 2.88539 10.9403 2.54219 10.8152 2.24383C10.69 1.94539 10.3466 1.80516 10.0484 1.93016C7.38641 3.04656 5.15891 4.65953 3.42797 6.72422C2.1543 8.24336 1.17047 9.97414 0.503828 11.8685C0.204141 12.7202 0.332344 13.6326 0.855781 14.3716C1.0082 14.5869 1.18945 14.7758 1.39133 14.9366C0.551641 15.5155 0 16.4834 0 17.5781V18.0942C0 19.641 1.1007 20.9355 2.55992 21.2357L2.5482 24.7338C1.09492 25.0386 0 26.3298 0 27.8723V28.3884C0 29.9343 1.09953 31.2281 2.55758 31.5293C2.51828 32.1458 2.53844 33.1462 2.89391 34.2594C3.85195 37.2594 6.44656 38.6881 8.45438 39.3583C9.61227 39.7448 10.8488 39.9409 12.1297 39.9409H27.8704C29.1512 39.9409 30.3877 39.7448 31.5456 39.3583C33.5535 38.688 36.1481 37.2594 37.1061 34.2594C37.4616 33.1463 37.4817 32.1458 37.4424 31.5293C38.9005 31.2282 40 29.9343 40 28.3884V27.8723C40 26.3256 38.8991 25.0323 37.4401 24.7321V21.2357C38.8993 20.9355 40 19.641 40 18.0942ZM1.17156 28.3884V27.8723C1.17156 26.9821 1.74664 26.2253 2.54422 25.9495L2.54305 26.2948C2.54305 27.1262 3.00937 27.8631 3.75992 28.2179C4.51484 28.5747 5.38578 28.4661 6.03258 27.9345C6.33516 27.6859 6.70352 27.4558 7.34445 27.4558C7.41188 27.4558 7.47539 27.4585 7.53734 27.4623V30.424H3.20711C2.08469 30.424 1.17156 29.5108 1.17156 28.3884ZM24.5147 23.8062H36.2685V26.295C36.2685 26.6744 36.0644 26.9974 35.7226 27.1589C35.3763 27.3225 34.992 27.2742 34.6945 27.0297C34.2721 26.6826 33.6567 26.2841 32.6381 26.2841C31.3804 26.2841 30.7355 26.7949 30.1666 27.2456C29.6671 27.6413 29.2725 27.9538 28.4225 27.9538C27.5724 27.9538 27.1779 27.6413 26.6784 27.2456C26.1095 26.795 25.4646 26.2841 24.2068 26.2841C22.949 26.2841 22.276 26.8173 21.7352 27.2456C21.2357 27.6413 20.8412 27.9538 19.9912 27.9538C19.1413 27.9538 18.7467 27.6413 18.2473 27.2456C17.7066 26.8173 17.0335 26.2841 15.7758 26.2841C14.518 26.2841 13.8732 26.7949 13.3042 27.2456C12.9481 27.5277 12.644 27.7665 12.1913 27.8807V24.5823C12.1913 24.1544 12.5395 23.8062 12.9674 23.8062H21.7679C22.0914 23.8062 22.3537 23.544 22.3537 23.2205C22.3537 22.8969 22.0914 22.6347 21.7679 22.6347H12.9673C11.8934 22.6347 11.0197 23.5084 11.0197 24.5823V31.7965C11.0197 32.4336 10.5014 32.9519 9.8643 32.9519C9.22719 32.9519 8.70891 32.4336 8.70891 31.7965V24.5823C8.70891 23.5084 7.83516 22.6347 6.76125 22.6347H3.73148V21.3014H36.2685V22.6347H24.5147C24.1912 22.6347 23.9289 22.8969 23.9289 23.2205C23.9289 23.544 24.1912 23.8062 24.5147 23.8062ZM6.76117 23.8062C7.18914 23.8062 7.53734 24.1544 7.53734 24.5823V26.2891C7.47461 26.2862 7.41078 26.2841 7.34445 26.2841C6.32617 26.2841 5.71094 26.6823 5.28875 27.0293C4.99109 27.2738 4.6068 27.3222 4.26039 27.1585C3.91859 26.997 3.71453 26.6741 3.71453 26.2947V23.8062H6.76117ZM35.9901 33.903C35.341 35.9355 33.7209 37.3971 31.1746 38.247C30.1366 38.5936 29.0248 38.7693 27.8703 38.7693H12.1297C10.9752 38.7693 9.86344 38.5936 8.82539 38.247C3.8375 36.582 3.62859 32.9041 3.7232 31.5955H7.53742V31.7964C7.53742 33.0795 8.58125 34.1234 9.86438 34.1234C11.1475 34.1234 12.1913 33.0796 12.1913 31.7964V31.5955H36.2738C36.3069 32.0959 36.295 32.948 35.9901 33.903ZM38.8284 27.8723V28.3884C38.8284 29.5108 37.9152 30.424 36.7928 30.424H12.1912V29.0765C13.0502 28.9394 13.5668 28.5321 14.0316 28.164C14.5311 27.7683 14.9257 27.4558 15.7757 27.4558C16.6257 27.4558 17.0202 27.7683 17.5197 28.164C18.0605 28.5923 18.7334 29.1255 19.9912 29.1255C21.2489 29.1255 21.8938 28.6147 22.4627 28.164C22.9622 27.7683 23.3567 27.4558 24.2067 27.4558C25.0568 27.4558 25.4513 27.7683 25.9509 28.164C26.5198 28.6146 27.1646 29.1255 28.4224 29.1255C29.6802 29.1255 30.3251 28.6147 30.894 28.164C31.3935 27.7683 31.788 27.4558 32.638 27.4558C33.2792 27.4558 33.6477 27.686 33.9505 27.9349C34.5972 28.4664 35.468 28.5751 36.223 28.2183C36.9737 27.8636 37.44 27.1266 37.44 26.2951V25.9429C38.2461 26.2139 38.8284 26.9761 38.8284 27.8723ZM36.7929 20.1298H3.20711C2.08469 20.1298 1.17148 19.2166 1.17148 18.0942V17.5781C1.17148 16.4557 2.08469 15.5425 3.20711 15.5425H36.7928C37.9152 15.5425 38.8284 16.4557 38.8284 17.5781V18.0942C38.8284 19.2166 37.9153 20.1298 36.7929 20.1298Z" fill="black"/>
</g>
<defs>
<clipPath id="clip0">
<rect width="40" height="40" fill="white"/>
</clipPath>
</defs>
</svg>
