<svg width="40" height="40" viewBox="0 0 40 40" fill="none" xmlns="http://www.w3.org/2000/svg">
<g clip-path="url(#clip0)">
<path d="M18.2422 28.0646V35.5682C18.2422 36.5375 19.0307 37.326 20 37.326C20.9693 37.326 21.7578 36.5375 21.7578 35.5682V28.0646C21.7578 27.0953 20.9693 26.3068 20 26.3068C19.0307 26.3068 18.2422 27.0953 18.2422 28.0646ZM20.5859 28.0646V35.5682C20.5859 35.8913 20.3231 36.1541 20 36.1541C19.6769 36.1541 19.4141 35.8913 19.4141 35.5682V28.0646C19.4141 27.7415 19.6769 27.4787 20 27.4787C20.3231 27.4787 20.5859 27.7415 20.5859 28.0646ZM27.3026 26.3279C26.3541 26.1798 25.438 26.847 25.2945 27.7934L24.1226 35.297C23.9701 36.2366 24.6395 37.1569 25.588 37.305C26.5379 37.4534 27.4512 36.7986 27.5961 35.8395L28.768 28.3359C28.9207 27.3869 28.2436 26.4748 27.3026 26.3279ZM27.6102 28.155L26.4383 35.6586C26.3889 35.9743 26.084 36.1964 25.769 36.1471C25.4541 36.0978 25.2298 35.7925 25.2805 35.4778L26.4523 27.9742C26.4947 27.6927 26.7466 27.4786 27.0301 27.4786C27.3802 27.4786 27.668 27.8048 27.6102 28.155ZM35.272 13.7516C35.2012 13.7224 35.1545 13.6625 35.1467 13.5912C34.7484 9.87719 32.9963 6.44617 30.213 3.93016C27.4095 1.39578 23.7824 0 20 0C16.5421 0 13.1559 1.19039 10.4655 3.3518C10.2132 3.55445 10.173 3.92328 10.3756 4.17555C10.5784 4.42773 10.947 4.46812 11.1994 4.26531C13.7186 2.24156 16.7618 1.17188 20 1.17188C23.4914 1.17188 26.8394 2.46016 29.4272 4.79953C31.9966 7.12219 33.614 10.2889 33.9816 13.7162C34.0349 14.2139 34.3584 14.6427 34.8256 14.8352C36.5719 15.5546 37.7087 17.3078 37.6544 19.1977C37.6207 20.3684 37.138 21.4723 36.2952 22.3061C35.4523 23.1398 34.343 23.6107 33.1717 23.6321C31.8128 23.6568 30.5201 23.0805 29.6294 22.0507C29.3677 21.748 28.9885 21.5745 28.589 21.5745C28.1946 21.5745 27.8214 21.7452 27.5653 22.0427C26.6953 23.0532 25.4329 23.6328 24.1016 23.6328C22.9231 23.6328 21.8041 23.1851 20.9508 22.372C20.4176 21.8638 19.5823 21.864 19.0493 22.372C18.1959 23.1851 17.0769 23.6328 15.8984 23.6328C14.5671 23.6328 13.3047 23.0532 12.4348 22.0427C11.8989 21.42 10.9036 21.4346 10.3709 22.0507C9.48023 23.0806 8.19141 23.6573 6.82844 23.6321C5.65711 23.6107 4.54781 23.1398 3.705 22.3061C2.86211 21.4723 2.37938 20.3684 2.34578 19.1977C2.29148 17.3077 3.4282 15.5545 5.17445 14.8351C5.64172 14.6426 5.96516 14.2138 6.01852 13.7162C6.31898 10.9149 7.44453 8.29516 9.27352 6.14016C9.48289 5.89344 9.45266 5.52367 9.20594 5.3143C8.95922 5.10492 8.58945 5.13523 8.38008 5.38188C6.39852 7.71664 5.17899 10.5554 4.85336 13.5913C4.8457 13.6625 4.79891 13.7224 4.72813 13.7516C2.5343 14.6554 1.10617 16.8576 1.17438 19.2313C1.21672 20.7047 1.82281 22.0926 2.88094 23.1392C3.71914 23.9684 4.76883 24.5102 5.90164 24.7135L8.45023 37.6367C8.72 39.0061 9.92875 40 11.3244 40H28.6759C30.0715 40 31.2802 39.0061 31.5501 37.6368L32.5978 32.3242C32.6604 32.0067 32.4538 31.6986 32.1363 31.6359C31.8186 31.5733 31.5107 31.78 31.448 32.0974L30.4003 37.4101C30.2382 38.2318 29.513 38.8281 28.6758 38.8281H11.3242C10.487 38.8281 9.76172 38.2318 9.59984 37.4101L7.11328 24.8012C8.7093 24.7467 10.2055 24.0334 11.2572 22.8171C11.3449 22.7156 11.4663 22.7136 11.5467 22.807C12.6394 24.0766 14.2256 24.8046 15.8985 24.8046C17.3794 24.8046 18.7854 24.242 19.8577 23.2203C19.9389 23.143 20.0613 23.143 20.1425 23.2203C21.2148 24.242 22.6209 24.8046 24.1016 24.8046C25.7745 24.8046 27.3607 24.0765 28.4534 22.807C28.4967 22.7567 28.5547 22.7476 28.5889 22.7463C28.6237 22.7463 28.6897 22.7555 28.7429 22.817C29.7946 24.0332 31.2915 24.7466 32.8868 24.8011L31.9884 29.3568C31.9258 29.6743 32.1323 29.9824 32.4498 30.0451C32.7595 30.1062 33.0757 29.9041 33.1381 29.5836L34.0986 24.7134C35.2314 24.5101 36.2811 23.9682 37.1193 23.1391C38.1773 22.0926 38.7834 20.7047 38.8259 19.2313C38.8939 16.8576 37.4658 14.6554 35.272 13.7516ZM24.2122 10.1703C25.5655 10.1703 26.6666 9.0693 26.6666 7.71594C26.6666 6.36258 25.5655 5.26156 24.2122 5.26156C22.8588 5.26156 21.7578 6.36258 21.7578 7.71594C21.7578 9.0693 22.8588 10.1703 24.2122 10.1703ZM24.2122 6.43344C24.9194 6.43344 25.4947 7.00875 25.4947 7.71594C25.4947 8.42313 24.9194 8.99844 24.2122 8.99844C23.505 8.99844 22.9297 8.42305 22.9297 7.71594C22.9297 7.00883 23.505 6.43344 24.2122 6.43344ZM15.9394 5.26156C14.586 5.26156 13.485 6.36258 13.485 7.71594C13.485 9.0693 14.586 10.1703 15.9394 10.1703C17.2927 10.1703 18.3938 9.0693 18.3938 7.71594C18.3938 6.36258 17.2927 5.26156 15.9394 5.26156ZM15.9394 8.99844C15.2322 8.99844 14.6569 8.42313 14.6569 7.71594C14.6569 7.00875 15.2322 6.43344 15.9394 6.43344C16.6466 6.43344 17.2219 7.00875 17.2219 7.71594C17.2219 8.42313 16.6466 8.99844 15.9394 8.99844ZM29.6328 17.8297C30.9862 17.8297 32.0872 16.7287 32.0872 15.3753C32.0872 14.022 30.9862 12.9209 29.6328 12.9209C28.2795 12.9209 27.1784 14.022 27.1784 15.3753C27.1784 16.7287 28.2795 17.8297 29.6328 17.8297ZM29.6328 14.0928C30.34 14.0928 30.9153 14.6681 30.9153 15.3753C30.9153 16.0825 30.34 16.6578 29.6328 16.6578C28.9256 16.6578 28.3503 16.0825 28.3503 15.3753C28.3503 14.6681 28.9256 14.0928 29.6328 14.0928ZM7.91281 15.3753C7.91281 16.7287 9.01383 17.8297 10.3672 17.8297C11.7205 17.8297 12.8216 16.7287 12.8216 15.3753C12.8216 14.022 11.7205 12.9209 10.3672 12.9209C9.01383 12.9209 7.91281 14.022 7.91281 15.3753ZM10.3672 14.0928C11.0744 14.0928 11.6497 14.6681 11.6497 15.3753C11.6497 16.0825 11.0744 16.6578 10.3672 16.6578C9.66 16.6578 9.08469 16.0825 9.08469 15.3753C9.08469 14.6681 9.66 14.0928 10.3672 14.0928ZM20 15.0405C18.6466 15.0405 17.5456 16.1416 17.5456 17.4949C17.5456 18.8483 18.6466 19.9492 20 19.9492C21.3534 19.9492 22.4544 18.8482 22.4544 17.4948C22.4544 16.1415 21.3534 15.0405 20 15.0405ZM20 18.7773C19.2928 18.7773 18.7175 18.202 18.7175 17.4948C18.7175 16.7877 19.2928 16.2123 20 16.2123C20.7072 16.2123 21.2825 16.7877 21.2825 17.4948C21.2825 18.202 20.7072 18.7773 20 18.7773ZM12.6975 26.3279C11.748 26.4762 11.0801 27.3891 11.232 28.3359L12.4038 35.8395C12.5384 36.7009 13.2681 37.3262 14.1391 37.3262C15.192 37.3262 16.047 36.3398 15.8773 35.297L14.7055 27.7934C14.562 26.8442 13.6405 26.1806 12.6975 26.3279ZM14.1391 36.1543C13.8541 36.1543 13.6058 35.9412 13.5616 35.6586L12.3898 28.155C12.3389 27.84 12.5634 27.5352 12.8784 27.4857C13.1896 27.4368 13.5005 27.6583 13.5476 27.9742L14.7195 35.4778C14.7759 35.8248 14.4913 36.1543 14.1391 36.1543Z" fill="black"/>
</g>
<defs>
<clipPath id="clip0">
<rect width="40" height="40" fill="white"/>
</clipPath>
</defs>
</svg>
