<svg width="40" height="32" viewBox="0 0 40 32" fill="none" xmlns="http://www.w3.org/2000/svg">
<path d="M40 22.9412C40 21.7128 39.4369 20.5833 38.4551 19.8422C37.9693 19.4756 37.689 18.8944 37.7051 18.2875C37.7218 17.6656 37.5848 17.0398 37.3091 16.4777C36.9692 15.7851 36.4362 15.2173 35.7786 14.835C36.5797 14.1549 37.0712 13.1605 37.1028 12.0823C37.1121 11.7592 36.858 11.4898 36.535 11.4805C36.2143 11.4705 35.9427 11.7252 35.9332 12.0482C35.9072 12.9395 35.426 13.7486 34.666 14.1983C34.4449 13.98 34.277 13.701 34.1866 13.3877C34.1067 13.1111 33.9951 12.8418 33.855 12.5876C33.1931 11.3874 31.9297 10.619 30.5581 10.5822C29.9127 10.5648 29.3373 10.2642 28.9794 9.75742C28.2522 8.72799 27.0665 8.1134 25.8077 8.1134C25.3367 8.1134 24.8762 8.19702 24.4388 8.362C23.7689 8.61465 23.0269 8.49663 22.5027 8.0538C22.1509 7.75676 21.7507 7.52711 21.3233 7.37212C21.3274 7.35004 21.3306 7.32766 21.3322 7.30472C21.4283 5.88489 22.6612 4.80764 24.0815 4.90382C24.9005 4.95921 25.6267 5.38698 26.0738 6.07725C26.4915 6.72242 27.303 6.98452 28.0466 6.71501C28.3834 6.59293 28.7372 6.54348 29.0985 6.56782C30.1275 6.6374 31.0145 7.31104 31.3584 8.28407C31.6163 9.01443 32.3403 9.47582 33.1208 9.40538C33.3109 9.3883 33.5046 9.39251 33.6966 9.41794C34.2598 9.49236 34.7726 9.74806 35.1796 10.1573C35.294 10.2724 35.4442 10.3299 35.5945 10.3299C35.7436 10.3299 35.8928 10.2732 36.007 10.1598C36.2361 9.93199 36.2371 9.56155 36.0094 9.33245C35.4268 8.74656 34.66 8.36496 33.8498 8.25794C33.5725 8.22128 33.2919 8.21527 33.016 8.24007C32.7649 8.26231 32.5425 8.12369 32.4616 7.89436C31.9622 6.48053 30.673 5.50157 29.1775 5.4004C28.6528 5.36483 28.1386 5.43706 27.6479 5.61491C27.4192 5.69791 27.1758 5.62638 27.0559 5.4412C26.4064 4.43829 25.351 3.81691 24.1604 3.73641C22.4095 3.61847 20.8551 4.72668 20.3383 6.32499C18.6474 2.81541 15.0879 0.535809 11.1103 0.535809C5.62194 0.535809 1.12615 4.82746 0.875283 10.3061C0.86054 10.6289 1.11023 10.9025 1.43294 10.9173C1.44199 10.9177 1.45103 10.9179 1.46016 10.9179C1.77093 10.9179 2.02975 10.6733 2.0441 10.3596C2.26634 5.50703 6.24862 1.7058 11.1103 1.7058C14.763 1.7058 18.0168 3.87619 19.4417 7.18031C18.9387 7.25355 18.4548 7.42485 18.0184 7.68383C16.8094 4.9798 14.1248 3.21128 11.1103 3.21128C6.93561 3.21128 3.53937 6.60752 3.53937 10.7821C3.53937 12.1552 3.90428 13.4762 4.59758 14.6415C4.12472 14.8519 3.70778 15.1496 3.36285 15.5117C2.83086 14.6437 2.45277 13.6998 2.23716 12.6955C2.1693 12.3795 1.85798 12.1785 1.54238 12.2462C1.22646 12.3141 1.02536 12.6251 1.09315 12.941C1.37365 14.2475 1.8973 15.4635 2.64989 16.5618C2.47165 16.949 2.3555 17.369 2.31244 17.8083C2.29832 17.9516 2.29216 18.0971 2.29403 18.241C2.30245 18.8878 2.02218 19.4769 1.5249 19.8572C0.51498 20.6295 -0.0535949 21.8496 0.00397242 23.1207C0.0780767 24.7574 1.19393 26.1647 2.72937 26.6451C2.71642 26.9178 2.70933 27.1913 2.70933 27.4657V28.9377C2.70933 30.3307 3.84265 31.464 5.23573 31.464H34.7643C36.1573 31.464 37.2907 30.3307 37.2907 28.9377V27.4657C37.2907 27.1918 37.2839 26.919 37.2712 26.6473C38.8798 26.1527 40 24.6701 40 22.9412ZM11.1103 4.38151C13.7247 4.38151 16.0464 5.95431 17.0281 8.3407C16.5755 8.53259 16.0493 8.54624 15.561 8.36215C15.1237 8.19717 14.6631 8.11347 14.1921 8.11347C12.9126 8.11347 11.7158 8.74406 10.9907 9.80032C10.6563 10.2875 10.113 10.579 9.53745 10.5799C9.14501 10.5806 8.75483 10.6412 8.37768 10.7599C7.13429 11.1516 6.17592 12.1342 5.81429 13.3884C5.75626 13.5897 5.66429 13.7766 5.54416 13.9436C4.99673 12.9838 4.70944 11.9036 4.70944 10.7822C4.70944 7.25285 7.58086 4.38151 11.1103 4.38151ZM37.1714 25.4407C36.7261 21.6582 35.0368 18.1578 32.3025 15.4235C29.086 12.2069 24.8092 10.4354 20.2603 10.4354H19.7397C13.5031 10.4354 7.77119 13.8396 4.78081 19.3195C4.62613 19.6031 4.7305 19.9585 5.01412 20.1133C5.29775 20.2681 5.65314 20.1636 5.80798 19.88C8.59313 14.7761 13.9314 11.6054 19.7397 11.6054H20.2603C29.0057 11.6054 36.1205 18.7203 36.1205 27.4657V28.9377C36.1205 29.6855 35.5121 30.294 34.7642 30.294H5.23566C4.48775 30.294 3.87931 29.6855 3.87931 28.9377V27.4657C3.87931 25.6139 4.19609 23.7992 4.82059 22.072C4.9305 21.7682 4.77332 21.4327 4.46942 21.3228C4.16575 21.2132 3.83017 21.3701 3.72026 21.6741C3.2793 22.8934 2.98226 24.1532 2.82969 25.4378C1.88614 25.0376 1.22037 24.1206 1.17271 23.0678C1.13246 22.1792 1.52974 21.3264 2.23553 20.7867C3.02961 20.1795 3.47728 19.2461 3.46386 18.2261C3.46261 18.1253 3.46698 18.0232 3.47681 17.9226C3.57541 16.9186 4.21762 16.058 5.15274 15.6765C6.03091 15.3182 6.6817 14.6024 6.93842 13.7126C7.19123 12.836 7.86059 12.1494 8.72909 11.8759C8.99306 11.7928 9.26568 11.7504 9.5394 11.7499C10.4999 11.7482 11.4032 11.267 11.9554 10.4624C12.4621 9.72419 13.2983 9.28346 14.1921 9.28346C14.5215 9.28346 14.8432 9.34181 15.1481 9.45679C16.2146 9.85906 17.404 9.66405 18.2521 8.94781C18.7398 8.53603 19.3606 8.30919 19.9999 8.30919C20.6392 8.30919 21.26 8.53595 21.7477 8.94781C22.5959 9.66405 23.7851 9.85906 24.8518 9.45671C25.1566 9.34173 25.4782 9.28338 25.8076 9.28338C26.687 9.28338 27.5154 9.71296 28.0236 10.4323C28.5964 11.2435 29.5087 11.7244 30.5267 11.7517C31.4852 11.7774 32.3679 12.3142 32.8302 13.1525C32.9284 13.3306 33.0065 13.5189 33.0623 13.712C33.3203 14.6063 33.9748 15.3358 34.8131 15.6634C35.4458 15.9106 35.9591 16.3829 36.2585 16.993C36.454 17.3914 36.5471 17.8164 36.5354 18.2562C36.5092 19.2402 36.9633 20.1822 37.7502 20.776C38.4363 21.2939 38.8299 22.0829 38.8299 22.941C38.8299 24.0583 38.1607 25.028 37.1714 25.4407Z" fill="black"/>
<path d="M9.03861 8.38174C9.14298 8.58174 9.34672 8.69625 9.55772 8.69625C9.64891 8.69625 9.74142 8.67488 9.82793 8.62979C10.1144 8.48026 10.2254 8.1269 10.076 7.84046L9.87411 7.45364C9.72457 7.16713 9.37129 7.05613 9.08478 7.20558C8.79835 7.35512 8.68728 7.70848 8.83673 7.99491L9.03861 8.38174Z" fill="black"/>
<path d="M12.5823 7.4183C12.5929 7.41884 12.6034 7.41916 12.6139 7.41916C12.9227 7.41916 13.181 7.17726 13.1975 6.86517L13.2207 6.42944C13.2378 6.10681 12.9902 5.83138 12.6676 5.81422C12.3448 5.79635 12.0694 6.04464 12.0523 6.36734L12.0291 6.80308C12.0121 7.1257 12.2597 7.40114 12.5823 7.4183Z" fill="black"/>
<path d="M6.48904 10.6225L6.89037 10.7939C6.96533 10.8259 7.04318 10.841 7.11978 10.841C7.34709 10.841 7.56324 10.7078 7.65809 10.4855C7.78501 10.1883 7.64694 9.84465 7.34982 9.71773L6.94848 9.54636C6.65113 9.41952 6.3076 9.55759 6.18069 9.85463C6.05385 10.1519 6.19184 10.4957 6.48904 10.6225Z" fill="black"/>
<path d="M11.4195 24.2603H13.8666C15.0807 24.2603 16.0685 23.2725 16.0685 22.0583C16.0685 20.8442 15.0808 19.8564 13.8666 19.8564H11.4195C10.2054 19.8564 9.21754 20.8442 9.21754 22.0583C9.21754 23.2725 10.2053 24.2603 11.4195 24.2603ZM11.4195 21.0266H13.8666C14.4356 21.0266 14.8985 21.4895 14.8985 22.0584C14.8985 22.6274 14.4356 23.0903 13.8666 23.0903H11.4195C10.8505 23.0903 10.3876 22.6274 10.3876 22.0584C10.3876 21.4895 10.8505 21.0266 11.4195 21.0266Z" fill="black"/>
<path d="M25.5779 21.7694H31.0839C31.4071 21.7694 31.669 21.5075 31.669 21.1844C31.669 20.8613 31.4071 20.5994 31.0839 20.5994H25.5779C25.2547 20.5994 24.9929 20.8613 24.9929 21.1844C24.9929 21.5075 25.2547 21.7694 25.5779 21.7694Z" fill="black"/>
<path d="M17.5374 27.0132H23.4367C23.7598 27.0132 24.0217 26.7513 24.0217 26.4282C24.0217 26.1051 23.7598 25.8432 23.4367 25.8432H17.5374C17.2142 25.8432 16.9523 26.1051 16.9523 26.4282C16.9523 26.7513 17.2142 27.0132 17.5374 27.0132Z" fill="black"/>
<path d="M26.8014 25.8432H25.9711C25.6479 25.8432 25.3861 26.1051 25.3861 26.4282C25.3861 26.7513 25.6479 27.0132 25.9711 27.0132H26.8014C27.1246 27.0132 27.3864 26.7513 27.3864 26.4282C27.3864 26.1051 27.1246 25.8432 26.8014 25.8432Z" fill="black"/>
</svg>
