<svg width="40" height="40" viewBox="0 0 40 40" fill="none" xmlns="http://www.w3.org/2000/svg">
<g clip-path="url(#clip0)">
<path d="M38.6311 19.5994H38.017C37.9575 19.2393 37.9267 18.8997 37.9951 18.648C38.1152 18.2057 38.5102 17.7369 38.8923 17.2835C39.4335 16.6413 39.9931 15.9774 39.9999 15.1674C40.0084 14.1478 39.3046 13.3892 38.6835 12.7199C38.3464 12.3566 38.0279 12.0134 37.9045 11.7128C37.7566 11.3522 37.6838 10.8652 37.6134 10.3943C37.4666 9.41238 37.3002 8.29958 36.3631 7.81911C35.4251 7.33888 34.4245 7.8538 33.5413 8.30833C33.1181 8.52614 32.6805 8.7513 32.3021 8.84184C32.0197 8.90919 31.5996 8.867 31.2278 8.82208C30.907 8.78325 30.6146 9.01223 30.5758 9.33348C30.5371 9.65473 30.766 9.94668 31.0873 9.98543C31.5814 10.0452 32.1035 10.0939 32.5744 9.9816C33.0908 9.85809 33.5924 9.59996 34.0775 9.35028C34.7713 8.99325 35.4265 8.65598 35.8286 8.862C36.2302 9.06786 36.3391 9.79629 36.4544 10.5676C36.5351 11.1075 36.6187 11.6658 36.8203 12.1577C37.0244 12.6549 37.4311 13.0932 37.8245 13.5171C38.3202 14.0513 38.8326 14.6037 38.828 15.1576C38.8248 15.5453 38.4035 16.0451 37.9962 16.5285C37.5321 17.0792 37.0522 17.6487 36.8642 18.3409C36.7556 18.7408 36.7734 19.1748 36.8322 19.5995H32.8975C32.8883 19.0848 32.6669 18.6231 32.3658 18.1873C32.7593 17.0969 33.1088 15.9748 33.405 14.8463C33.4872 14.5334 33.3 14.2131 32.987 14.1309C32.6738 14.0488 32.3538 14.236 32.2716 14.5489C32.0456 15.4099 31.7874 16.2671 31.502 17.1086C31.1595 16.6944 30.8435 16.2731 30.7334 15.8675C30.6244 15.4665 30.7372 14.8898 30.8566 14.2792C31.0276 13.4044 31.2215 12.4128 30.7902 11.571C30.3587 10.729 29.44 10.3073 28.6295 9.9352C28.0644 9.67574 27.5307 9.43067 27.269 9.10903C26.9505 8.7163 26.7873 8.0688 26.6295 7.44255C26.4098 6.57044 26.1825 5.66865 25.4898 5.16084C24.6158 4.52084 23.5155 4.65858 22.545 4.77998C22.009 4.84709 21.503 4.91053 21.1531 4.82694C20.7376 4.7278 20.2616 4.48295 19.8012 4.24608C18.8572 3.76046 17.7876 3.20999 16.796 3.71835C15.8549 4.20069 15.6469 5.29795 15.4939 6.3063C15.0237 6.0867 14.6018 5.86795 14.3785 5.59334C14.0599 5.20061 13.8967 4.55311 13.7389 3.92686C13.5192 3.05476 13.292 2.15296 12.5992 1.64515C11.7252 1.00515 10.625 1.14289 9.65441 1.26429C9.11863 1.3314 8.61246 1.39468 8.26254 1.31125C7.847 1.21211 7.37099 0.967264 6.9106 0.730389C5.96669 0.244923 4.89693 -0.305388 3.90569 0.202657C2.91421 0.71039 2.73616 1.90023 2.57921 2.95007C2.50265 3.46218 2.42335 3.99163 2.26109 4.38709C2.12468 4.7199 1.77765 5.09389 1.41015 5.4899C0.744998 6.20677 -0.00890481 7.01935 7.95295e-05 8.10255C0.00734512 8.96137 0.606874 9.6727 1.18664 10.3606C1.60281 10.8544 2.0332 11.365 2.16577 11.8525C2.27437 12.253 2.16155 12.8295 2.04218 13.4397C1.87093 14.3149 1.67679 15.307 2.10827 16.1484C2.5396 16.9902 3.45796 17.4119 4.26826 17.784C4.83357 18.0436 5.36763 18.2888 5.62966 18.6116C5.83232 18.861 5.97193 19.2142 6.0874 19.5994H1.3689C0.596092 19.5951 -0.0415609 20.2699 0.00242327 21.0406C0.125704 23.2008 0.705076 25.2597 1.72437 27.1602C1.87734 27.4454 2.23257 27.5527 2.51765 27.3996C2.8028 27.2466 2.90999 26.8915 2.75702 26.6063C1.81906 24.8573 1.28586 22.9623 1.17226 20.9737C1.16547 20.8546 1.24093 20.7752 1.3689 20.7712H38.6311C38.7603 20.7758 38.8344 20.8542 38.8276 20.9737C38.6375 24.3045 37.2305 27.4413 34.8656 29.8064C32.242 32.4303 28.8986 33.7817 25.245 33.7914H14.7549C10.6341 33.7905 6.83622 32.0064 4.20366 28.7755C3.99928 28.5247 3.63022 28.4868 3.37928 28.6915C3.12843 28.896 3.09085 29.265 3.2953 29.5159C5.13092 31.768 7.54028 33.3945 10.2281 34.2569V35.9295C10.2281 38.1739 12.054 39.9998 14.2984 39.9998H25.7015C27.9459 39.9998 29.7718 38.1739 29.7718 35.9295V34.2593C31.9811 33.5513 34.0059 32.3229 35.6942 30.635C38.2628 28.0662 39.7911 24.6589 39.9976 21.0406C40.0416 20.2698 39.3998 19.5955 38.6311 19.5994ZM13.6968 19.5994C12.2342 17.3863 10.9867 15.0352 9.98808 12.6053C9.30231 10.9378 8.72114 9.202 8.26067 7.44591C8.17848 7.13286 7.85825 6.94576 7.54528 7.02771C7.23224 7.10982 7.04505 7.43005 7.12708 7.7431C7.60075 9.54949 8.19872 11.3353 8.90418 13.0508C9.83488 15.3153 10.975 17.5135 12.2998 19.5994H7.30481C7.13989 18.9776 6.93763 18.3629 6.53935 17.8728C6.10521 17.338 5.42006 17.0233 4.75732 16.719C4.08873 16.412 3.39749 16.0945 3.15108 15.6138C2.90483 15.1335 3.05093 14.3868 3.19218 13.6647C3.3321 12.9495 3.47686 12.21 3.29663 11.5453C3.096 10.8078 2.58085 10.1965 2.08257 9.60535C1.63663 9.07622 1.17554 8.52903 1.17187 8.0927C1.16672 7.47513 1.7271 6.87107 2.26913 6.28693C2.6914 5.83178 3.12811 5.36107 3.34514 4.83186C3.56124 4.3053 3.65108 3.70452 3.73803 3.12343C3.86452 2.27781 3.98397 1.47914 4.4399 1.24562C4.89607 1.01187 5.61388 1.3814 6.37435 1.77257C6.89677 2.04132 7.437 2.31921 7.99044 2.45124C8.54661 2.58405 9.18379 2.50429 9.79988 2.42726C10.5907 2.32827 11.4085 2.22593 11.9067 2.59062C12.2587 2.84866 12.4335 3.54241 12.6025 4.21327C12.7914 4.96287 12.9867 5.73803 13.4687 6.33224C13.9029 6.8663 14.5877 7.18068 15.2499 7.48466C15.9188 7.79169 16.6102 8.10919 16.8566 8.58989C17.1028 9.07051 16.9569 9.81699 16.8158 10.5388C16.6759 11.2544 16.5312 11.9943 16.7116 12.6585C16.7917 12.9546 16.9251 13.2297 17.075 13.4773C15.4978 14.3193 14.4218 15.9814 14.4218 17.8906C14.4218 18.4768 14.5249 19.0548 14.7228 19.5995H13.6968V19.5994ZM22.8473 19.5994H15.9963C15.7324 19.071 15.5937 18.4865 15.5937 17.8906C15.5937 15.7797 17.3109 14.0624 19.4218 14.0624C21.5326 14.0624 23.2499 15.7797 23.2499 17.8906C23.25 18.4866 23.1112 19.0711 22.8473 19.5994ZM26.9411 19.5994H24.1208C24.3188 19.0547 24.4218 18.4768 24.4218 17.8906C24.4218 16.4003 23.7657 15.0612 22.728 14.1443C22.9843 14.0909 23.2469 14.0624 23.5155 14.0624C25.6264 14.0624 27.3436 15.7797 27.3436 17.8906C27.3437 18.4866 27.205 19.0711 26.9411 19.5994ZM28.2146 19.5994C28.4125 19.0547 28.5156 18.4768 28.5156 17.8906C28.5156 15.1335 26.2726 12.8906 23.5156 12.8906C22.8087 12.8906 22.1059 13.0415 21.4656 13.3291C20.8412 13.0482 20.1498 12.8906 19.4219 12.8906C18.997 12.8906 18.5845 12.9442 18.1903 13.0444C18.043 12.8296 17.9075 12.5907 17.8428 12.3517C17.7338 11.9507 17.8466 11.374 17.966 10.7635C18.137 9.88863 18.3309 8.89708 17.8996 8.05528C17.618 7.50591 17.1289 7.13599 16.5981 6.84154C16.7249 6.00795 16.8391 5.01295 17.3306 4.76115C17.7868 4.52748 18.5046 4.89694 19.2651 5.28811C19.7875 5.55686 20.3277 5.83474 20.8812 5.96677C21.4374 6.09959 22.0744 6.01982 22.6906 5.94279C23.4814 5.84381 24.2993 5.74154 24.7974 6.10615C25.1494 6.36427 25.3242 7.05794 25.4933 7.7288C25.6821 8.47841 25.8774 9.25356 26.3594 9.84778C26.7936 10.3818 27.4784 10.6962 28.1407 11.0002C28.8095 11.3072 29.501 11.6247 29.7473 12.1054C29.9935 12.586 29.8476 13.3325 29.7065 14.0543C29.5666 14.7699 29.4219 15.5099 29.6025 16.1745C29.8028 16.9126 30.3182 17.5241 30.8165 18.1154C31.253 18.6333 31.7028 19.1683 31.7246 19.5994H28.2146ZM28.6 35.9295C28.6 37.5277 27.2997 38.828 25.7015 38.828H14.2985C12.7003 38.828 11.4 37.5277 11.4 35.9295V34.5799C12.4878 34.8321 13.6119 34.9633 14.7549 34.9633H25.245C26.3887 34.9633 27.5124 34.8334 28.5999 34.5821V35.9295H28.6Z" fill="black"/>
</g>
<defs>
<clipPath id="clip0">
<rect width="40" height="40" fill="white"/>
</clipPath>
</defs>
</svg>
