<svg width="40" height="40" viewBox="0 0 40 40" fill="none" xmlns="http://www.w3.org/2000/svg">
<path d="M35.2759 22.0226H36.6876C38.5141 22.0226 40 20.5366 40 18.7101C40 16.8835 38.514 15.3976 36.6876 15.3976H34.9559H13.8501L8.65297 3.68664C8.07797 2.38797 6.61578 1.79172 5.32352 2.32969C4.05539 2.85891 3.44766 4.31156 3.93961 5.63633L7.5557 15.3975H5.04195H3.31242C1.48602 15.3975 0 16.8835 0 18.7101C0 20.5366 1.48602 22.0226 3.31242 22.0226H4.72219C5.57656 25.4595 7.58469 28.5481 10.4595 30.7501C9.82117 31.7167 9.41836 32.7163 9.27672 33.6966H4.81172C3.11586 33.6966 1.73625 35.0753 1.73625 36.77V38.2626C1.73625 38.6941 2.08609 39.0438 2.5175 39.0438H37.4803C37.9117 39.0438 38.2616 38.6941 38.2616 38.2626V36.77C38.2616 35.0754 36.883 33.6966 35.1883 33.6966H30.723C30.5813 32.7169 30.1781 31.7176 29.5394 30.7509C32.4139 28.5494 34.4217 25.4604 35.2759 22.0226ZM38.4375 18.7101C38.4375 19.6751 37.6525 20.4601 36.6876 20.4601H35.5791C35.6824 19.735 35.7371 18.999 35.7371 18.2561V16.9601H36.6876C37.6525 16.96 38.4375 17.7451 38.4375 18.7101ZM5.40453 5.09297C5.20555 4.55703 5.4343 3.97664 5.92461 3.77195C6.42555 3.56351 6.99617 3.80414 7.22453 4.31984L12.1406 15.3975H9.22188L5.40453 5.09297ZM1.5625 18.7101C1.5625 17.7451 2.3475 16.9601 3.31242 16.9601H4.2607V18.2561C4.2607 18.999 4.31539 19.735 4.41883 20.4601H3.31242C2.3475 20.4601 1.5625 19.675 1.5625 18.7101ZM6.33836 22.0226H16.4911C16.9225 22.0226 17.2723 21.6728 17.2723 21.2413C17.2723 20.8098 16.9225 20.4601 16.4911 20.4601H5.99789C5.88289 19.7365 5.8232 19 5.8232 18.2561V16.9601H34.1745V18.2561C34.1745 19.0001 34.1148 19.7366 34 20.4601H23.5067C23.0753 20.4601 22.7255 20.8098 22.7255 21.2413C22.7255 21.6728 23.0753 22.0226 23.5067 22.0226H33.6598C32.8398 24.9721 31.0701 27.614 28.5795 29.518C28.408 29.328 28.2278 29.1402 28.0378 28.9552C27.7345 28.66 27.2513 28.66 26.9479 28.9552C26.1163 29.7648 25.4606 30.6276 24.9993 31.5061C24.538 30.6277 23.8823 29.7648 23.0507 28.9552C22.7473 28.66 22.2641 28.66 21.9608 28.9552C21.1288 29.7652 20.4728 30.628 20.0111 31.5062C19.5494 30.628 18.8934 29.7652 18.0614 28.9552C17.758 28.66 17.2748 28.66 16.9715 28.9552C16.133 29.7715 15.4736 30.6419 15.0117 31.528C14.5493 30.6416 13.8891 29.771 13.0496 28.9548C12.746 28.6598 12.2632 28.6602 11.9601 28.9552C11.7705 29.1398 11.5905 29.3274 11.4194 29.5171C8.92844 27.6126 7.15859 24.9711 6.33836 22.0226ZM24.1464 33.6966H20.863C21.0646 32.7001 21.6337 31.6401 22.5056 30.6477C23.3766 31.6395 23.9452 32.6995 24.1464 33.6966ZM19.1591 33.6966H15.8757C16.077 32.6995 16.6455 31.6395 17.5165 30.6477C18.3884 31.6401 18.9575 32.7001 19.1591 33.6966ZM12.5053 30.6473C13.3772 31.6387 13.9463 32.699 14.1477 33.6966H10.8642C11.0656 32.6994 11.6342 31.6392 12.5053 30.6473ZM36.6991 36.77V37.4813H3.29875V36.77C3.29875 35.9369 3.9775 35.2591 4.81172 35.2591H35.1883C36.0213 35.2591 36.6991 35.9369 36.6991 36.77ZM25.8522 33.6966C26.0534 32.6995 26.6219 31.6394 27.4929 30.6477C28.3648 31.6401 28.9339 32.7001 29.1355 33.6966H25.8522Z" fill="black"/>
<path d="M17.0005 12.0051C17.1524 12.2221 17.3948 12.3383 17.6411 12.3383C17.7958 12.3383 17.9521 12.2924 18.0886 12.1969C18.4419 11.9494 18.5279 11.4623 18.2804 11.1087C17.8233 10.4562 17.8233 9.3114 18.2809 8.65804C19.1129 7.46695 19.1126 5.60281 18.2804 4.41414C18.0329 4.06078 17.5458 3.97476 17.1923 4.22226C16.8389 4.46968 16.753 4.95687 17.0005 5.31031C17.4573 5.96265 17.457 7.1089 17.0005 7.76258C16.1675 8.95203 16.1675 10.8155 17.0005 12.0051Z" fill="black"/>
<path d="M22.7383 8.88023C22.8902 9.09734 23.1326 9.21351 23.3789 9.21351C23.5336 9.21351 23.6899 9.16765 23.8263 9.07218C24.1798 8.82468 24.2657 8.33758 24.0182 7.98414C23.5613 7.33148 23.5613 6.18664 24.0187 5.53336C24.8508 4.34219 24.8506 2.47804 24.0182 1.28937C23.7708 0.935935 23.2837 0.850075 22.9301 1.0975C22.5767 1.345 22.4908 1.83211 22.7383 2.18554C23.1952 2.83797 23.1949 3.98414 22.7383 4.63781C21.9055 5.82726 21.9055 7.69078 22.7383 8.88023Z" fill="black"/>
<path d="M28.4783 12.005C28.6303 12.222 28.8726 12.3382 29.1189 12.3382C29.2736 12.3382 29.43 12.2923 29.5664 12.1968C29.9198 11.9494 30.0057 11.4622 29.7582 11.1088C29.3013 10.4562 29.3013 9.31133 29.7588 8.65805C30.5908 7.46688 30.5906 5.60274 29.7582 4.41406C29.5107 4.06063 29.0237 3.97477 28.6701 4.22219C28.3167 4.46969 28.2308 4.9568 28.4783 5.31024C28.9352 5.96266 28.935 7.10883 28.4783 7.7625C27.6455 8.95203 27.6455 10.8155 28.4783 12.005Z" fill="black"/>
<path d="M19.9988 22.0226H20.0034C20.4348 22.0226 20.7824 21.6728 20.7824 21.2413C20.7824 20.8098 20.4303 20.4601 19.9989 20.4601C19.5675 20.4601 19.2177 20.8098 19.2177 21.2413C19.2177 21.6728 19.5674 22.0226 19.9988 22.0226Z" fill="black"/>
</svg>
