<svg width="40" height="40" viewBox="0 0 40 40" fill="none" xmlns="http://www.w3.org/2000/svg">
<g clip-path="url(#clip0)">
<path d="M21.6732 14.7099C21.6732 12.7096 21.2261 10.8235 20.3802 9.25533C20.2266 8.97049 19.8711 8.86424 19.5863 9.01775C19.3015 9.17142 19.1952 9.52682 19.3488 9.81166C20.1027 11.2095 20.5013 12.9032 20.5013 14.7099C20.5013 16.8853 19.9159 18.9092 18.8529 20.4088C17.9183 21.7274 16.7335 22.4535 15.5169 22.4535C15.033 22.4535 14.553 22.3396 14.09 22.1153C13.0616 21.6168 11.967 21.3641 10.8366 21.3641C9.70625 21.3641 8.61164 21.6168 7.58313 22.1153C7.12016 22.3397 6.64008 22.4535 6.15625 22.4535C4.93969 22.4535 3.75484 21.7273 2.82016 20.4087C1.75727 18.9092 1.17188 16.8853 1.17188 14.7099C1.17188 12.5345 1.75727 10.5106 2.82023 9.01111C3.755 7.69252 4.93977 6.96635 6.15641 6.96635C6.64008 6.96635 7.12016 7.08017 7.5832 7.30455C9.65086 8.30674 12.0224 8.30658 14.0899 7.30455C14.553 7.0801 15.0331 6.96635 15.517 6.96635C16.3223 6.96635 17.1293 7.28955 17.8507 7.90111C18.0977 8.11033 18.4674 8.07986 18.6766 7.83299C18.8857 7.58611 18.8552 7.21635 18.6084 7.00713C17.6725 6.21377 16.6034 5.79447 15.517 5.79447C14.8547 5.79447 14.2027 5.94775 13.5788 6.25002C12.8987 6.57971 12.1795 6.78064 11.4517 6.85299C11.6041 5.27939 12.3503 3.81291 13.5512 2.76049C13.7945 2.54721 13.8189 2.17705 13.6056 1.93361C13.3923 1.69025 13.0221 1.66588 12.7787 1.87916C12.4856 2.13603 12.2154 2.41369 11.9693 2.709C11.823 1.99057 11.529 1.39767 11.1036 0.972206C10.5561 0.42455 9.73148 0.0943155 8.71875 0.017128C7.99164 -0.0382626 7.40977 0.0543155 7.38531 0.0582218C7.13641 0.0986905 6.94133 0.293769 6.90094 0.542675C6.89695 0.567128 6.80445 1.14924 6.85984 1.87642C6.93695 2.88939 7.26711 3.71424 7.81453 4.26182C8.36203 4.80947 9.18664 5.13971 10.1994 5.21689C10.3361 5.22728 10.4677 5.23252 10.5913 5.234C10.4266 5.75853 10.3196 6.30299 10.2748 6.85791C9.52883 6.79025 8.79109 6.5876 8.0943 6.24986C7.47063 5.9476 6.81859 5.79432 6.15641 5.79432C4.54914 5.79432 3.02484 6.69603 1.86422 8.33322C0.662109 10.0294 0 12.2939 0 14.7099C0 17.126 0.662109 19.3905 1.86422 21.0865C3.02477 22.7238 4.54914 23.6254 6.15633 23.6254C6.81867 23.6254 7.47063 23.4721 8.0943 23.1699C8.96211 22.7493 9.88484 22.536 10.8366 22.536C11.7885 22.536 12.7112 22.7492 13.5789 23.1699C14.2024 23.4721 14.8545 23.6254 15.517 23.6254C17.1242 23.6254 18.6486 22.7237 19.8091 21.0865C21.0111 19.3906 21.6732 17.126 21.6732 14.7099ZM8.6432 3.43338C8.07969 2.86971 7.99055 1.8376 8.01719 1.17463C8.68008 1.14783 9.71156 1.23728 10.2747 1.80072H10.2748C10.8383 2.36439 10.9274 3.39642 10.9008 4.05947C10.2378 4.08596 9.20648 3.99682 8.6432 3.43338Z" fill="black"/>
<path d="M30.0696 19.9904C30.026 19.4269 29.9183 18.874 29.751 18.3416C29.8747 18.3401 30.0064 18.3349 30.143 18.3245C31.1557 18.2473 31.9805 17.9171 32.5279 17.3694C33.0753 16.8219 33.4053 15.997 33.4825 14.9841C33.5379 14.2569 33.4454 13.6748 33.4415 13.6503C33.401 13.4014 33.206 13.2063 32.9571 13.1658C32.9327 13.1619 32.3507 13.0694 31.6237 13.1247C30.6109 13.2019 29.7862 13.5321 29.2389 14.0798C28.8135 14.5052 28.5193 15.0981 28.3731 15.8166C28.1271 15.5213 27.8568 15.2437 27.5637 14.9868C27.3205 14.7735 26.9501 14.7978 26.7369 15.0412C26.5236 15.2846 26.5479 15.6548 26.7913 15.8681C28.0003 16.9278 28.7484 18.4071 28.8937 19.9928C26.8024 20.1062 24.8289 20.8006 23.1527 22.0184C21.3673 23.3156 20.0427 25.1568 19.4228 27.203C19.329 27.5127 19.504 27.8398 19.8137 27.9336C20.1235 28.0273 20.4505 27.8524 20.5444 27.5427C21.0906 25.7396 22.2616 24.1144 23.8415 22.9665C25.4789 21.7769 27.4374 21.1481 29.5057 21.1481C34.6461 21.1481 38.8281 25.1138 38.8281 29.9882C38.8281 34.8625 34.6461 38.8281 29.5057 38.8281C24.3653 38.8281 20.1832 34.8625 20.1832 29.988C20.1832 29.6644 19.921 29.402 19.5973 29.402C19.2736 29.402 19.0114 29.6644 19.0114 29.988C19.0114 35.5086 23.7192 40 29.5057 40C35.2923 40 40 35.5087 40 29.988C40 24.6479 35.595 20.2708 30.0696 19.9904ZM29.4415 17.1671C29.4149 16.5035 29.5042 15.4718 30.0675 14.9083H30.0676C30.631 14.3447 31.6627 14.2553 32.3251 14.2821C32.3517 14.9457 32.2624 15.9774 31.6992 16.5409C31.1357 17.1044 30.1048 17.1937 29.4415 17.1671Z" fill="black"/>
<path d="M24.5588 35.4229C24.8823 35.4229 25.1445 35.1607 25.1445 34.8372C25.1445 34.5137 24.8823 34.2515 24.5588 34.2515C24.2353 34.2515 23.9731 34.5137 23.9731 34.8372C23.9731 35.1607 24.2353 35.4229 24.5588 35.4229Z" fill="black"/>
<path d="M33.4688 24.9459C33.7923 24.9459 34.0545 24.6837 34.0545 24.3602C34.0545 24.0368 33.7923 23.7745 33.4688 23.7745C33.1453 23.7745 32.8831 24.0368 32.8831 24.3602C32.8831 24.6837 33.1453 24.9459 33.4688 24.9459Z" fill="black"/>
<path d="M36.0873 26.393C36.0873 26.0696 35.8251 25.8073 35.5016 25.8073C35.1781 25.8073 34.9159 26.0695 34.9159 26.393C34.9159 26.7165 35.1781 26.9787 35.5016 26.9787C35.8251 26.9787 36.0873 26.7165 36.0873 26.393Z" fill="black"/>
<path d="M15.4691 19.5911C15.4691 19.9145 15.7312 20.1768 16.0548 20.1768C16.3783 20.1768 16.6405 19.9146 16.6405 19.5911C16.6405 19.2677 16.3783 19.0054 16.0548 19.0054C15.7312 19.0054 15.4691 19.2677 15.4691 19.5911Z" fill="black"/>
<path d="M6.05036 9.69992C6.37384 9.69992 6.63607 9.43769 6.63607 9.11421C6.63607 8.79074 6.37384 8.52851 6.05036 8.52851C5.72689 8.52851 5.46466 8.79074 5.46466 9.11421C5.46466 9.43769 5.72689 9.69992 6.05036 9.69992Z" fill="black"/>
<path d="M4.0962 11.5764C4.41968 11.5764 4.6819 11.3142 4.6819 10.9907C4.6819 10.6672 4.41968 10.405 4.0962 10.405C3.77273 10.405 3.5105 10.6672 3.5105 10.9907C3.5105 11.3142 3.77273 11.5764 4.0962 11.5764Z" fill="black"/>
</g>
<defs>
<clipPath id="clip0">
<rect width="40" height="40" fill="white"/>
</clipPath>
</defs>
</svg>
