<svg width="40" height="40" viewBox="0 0 40 40" fill="none" xmlns="http://www.w3.org/2000/svg">
<path d="M32.3438 0.78125H7.65625C3.8593 0.78125 0.78125 3.8593 0.78125 7.65625V32.3438C0.78125 36.1407 3.8593 39.2188 7.65625 39.2188H20C20 39.2088 20 31.0253 20 23.8672H15.3906V18.3198H20V14.2567C20 11.6584 21.2074 7.62094 26.5786 7.62094H32.4002V13.0631C32.4002 13.0631 28.529 13.0631 27.9673 13.0631C27.3705 13.0631 26.5624 13.3436 26.5624 14.5722V18.2848H32.4352L31.8734 23.8672H26.5625C26.5625 30.9552 26.5625 39.2088 26.5625 39.2188H32.3438C36.1407 39.2188 39.2188 36.1407 39.2188 32.3438V7.65625C39.2188 3.8593 36.1407 0.78125 32.3438 0.78125Z" fill="#6E87F5"/>
<path d="M20 30.8979C19.5685 30.8979 19.2188 30.5481 19.2188 30.1166V30.1104C19.2188 30.1094 19.2188 30.1083 19.2188 30.1072C19.2188 30.1062 19.2188 30.1051 19.2188 30.1041C19.2188 29.6726 19.5685 29.3229 20 29.3229C20.4315 29.3229 20.7812 29.6726 20.7812 30.1041C20.7812 30.1051 20.7812 30.1062 20.7812 30.1072C20.7812 30.1083 20.7812 30.1093 20.7812 30.1104C20.7812 30.1115 20.7812 30.1124 20.7812 30.1135C20.7812 30.1146 20.7812 30.1155 20.7812 30.1166C20.7812 30.5481 20.4315 30.8979 20 30.8979Z" fill="black"/>
<path d="M32.3438 40H26.5625C26.131 40 25.7812 39.6502 25.7812 39.2188V23.8672C25.7812 23.4357 26.131 23.0859 26.5625 23.0859H31.167L31.5715 19.066H26.5625C26.131 19.066 25.7812 18.7162 25.7812 18.2848V14.5722C25.7812 12.8817 26.9588 12.2819 27.9673 12.2819H31.619V8.40219H26.5786C21.3461 8.40219 20.7812 12.4964 20.7812 14.2567V18.3198C20.7812 18.7512 20.4314 19.101 19.9999 19.101H16.1718V23.0859H19.9999C20.4314 23.0859 20.7812 23.4357 20.7812 23.8672V26.875C20.7812 27.3065 20.4314 27.6562 19.9999 27.6562C19.5684 27.6562 19.2187 27.3065 19.2187 26.875V24.6484H15.3905C14.9591 24.6484 14.6093 24.2987 14.6093 23.8672V18.3198C14.6093 17.8884 14.9591 17.5386 15.3905 17.5386H19.2187V14.2568C19.2187 13.2115 19.4038 11.204 20.6439 9.50414C21.5305 8.28867 23.2799 6.83977 26.5786 6.83977H32.4002C32.8317 6.83977 33.1815 7.18953 33.1815 7.62102V13.0632C33.1815 13.4947 32.8317 13.8445 32.4002 13.8445H27.9673C27.5127 13.8445 27.3438 14.0417 27.3438 14.5723V17.5036H32.4353C32.6561 17.5036 32.8666 17.597 33.0148 17.7608C33.1629 17.9245 33.2348 18.1433 33.2127 18.363L32.6509 23.9455C32.6107 24.3446 32.2748 24.6485 31.8735 24.6485H27.3438V38.4375H32.3438C35.7038 38.4375 38.4375 35.7038 38.4375 32.3438V7.65625C38.4375 4.29617 35.7038 1.5625 32.3438 1.5625H7.65625C4.29617 1.5625 1.5625 4.29617 1.5625 7.65625V32.3438C1.5625 35.7038 4.29617 38.4375 7.65625 38.4375H19.2188V33.1641C19.2188 32.7326 19.5685 32.3828 20 32.3828C20.4315 32.3828 20.7812 32.7326 20.7812 33.1641V39.2188C20.7812 39.6502 20.4315 40 20 40H7.65625C3.43453 40 0 36.5655 0 32.3438V7.65625C0 3.43453 3.43453 0 7.65625 0H32.3438C36.5655 0 40 3.43453 40 7.65625V32.3438C40 36.5655 36.5655 40 32.3438 40Z" fill="black"/>
<path d="M4.53125 16.0938C4.09977 16.0938 3.75 15.744 3.75 15.3125V8.78906C3.75 8.35758 4.09977 8.00781 4.53125 8.00781C4.96273 8.00781 5.3125 8.35758 5.3125 8.78906V15.3125C5.3125 15.744 4.96273 16.0938 4.53125 16.0938Z" fill="black"/>
<path d="M4.53125 19.4923C4.09977 19.4923 3.75 19.1425 3.75 18.711V18.7018C3.75 18.2703 4.09977 17.9205 4.53125 17.9205C4.96273 17.9205 5.3125 18.2703 5.3125 18.7018V18.711C5.3125 19.1425 4.96273 19.4923 4.53125 19.4923Z" fill="black"/>
</svg>
