<svg width="40" height="40" viewBox="0 0 40 40" fill="none" xmlns="http://www.w3.org/2000/svg">
<path d="M28.2812 39.2188H11.7188C5.67812 39.2188 0.78125 34.3219 0.78125 28.2812V11.7188C0.78125 5.67812 5.67812 0.78125 11.7188 0.78125H28.2812C34.3219 0.78125 39.2188 5.67812 39.2188 11.7188V28.2812C39.2188 34.3219 34.3219 39.2188 28.2812 39.2188Z" fill="#E68CBE"/>
<path d="M28.2812 35.7812H11.7188C7.57664 35.7812 4.21875 32.4234 4.21875 28.2812V11.7188C4.21875 7.57664 7.57664 4.21875 11.7188 4.21875H28.2812C32.4234 4.21875 35.7812 7.57664 35.7812 11.7188V28.2812C35.7812 32.4234 32.4234 35.7812 28.2812 35.7812Z" fill="white"/>
<path d="M20 30C25.5228 30 30 25.5228 30 20C30 14.4772 25.5228 10 20 10C14.4772 10 10 14.4772 10 20C10 25.5228 14.4772 30 20 30Z" fill="#FF5A5A"/>
<path d="M20 26.25C23.4518 26.25 26.25 23.4518 26.25 20C26.25 16.5482 23.4518 13.75 20 13.75C16.5482 13.75 13.75 16.5482 13.75 20C13.75 23.4518 16.5482 26.25 20 26.25Z" fill="white"/>
<path d="M30.2539 11.9336C31.462 11.9336 32.4414 10.9542 32.4414 9.74609C32.4414 8.53797 31.462 7.55859 30.2539 7.55859C29.0458 7.55859 28.0664 8.53797 28.0664 9.74609C28.0664 10.9542 29.0458 11.9336 30.2539 11.9336Z" fill="#FF5A5A"/>
<path d="M28.2812 40H11.7188C5.25703 40 0 34.743 0 28.2812V11.7188C0 5.25703 5.25703 0 11.7188 0H28.2812C34.743 0 40 5.25703 40 11.7188V28.2812C40 34.743 34.743 40 28.2812 40ZM11.7188 1.5625C6.11859 1.5625 1.5625 6.11859 1.5625 11.7188V28.2812C1.5625 33.8814 6.11859 38.4375 11.7188 38.4375H28.2812C33.8814 38.4375 38.4375 33.8814 38.4375 28.2812V11.7188C38.4375 6.11859 33.8814 1.5625 28.2812 1.5625H11.7188Z" fill="black"/>
<path d="M28.2812 36.5625H23.5677C23.1362 36.5625 22.7865 36.2127 22.7865 35.7812C22.7865 35.3498 23.1362 35 23.5677 35H28.2812C31.9859 35 35 31.9859 35 28.2812V11.7188C35 8.01406 31.9859 5 28.2812 5H11.7188C8.01406 5 5 8.01406 5 11.7188V28.2812C5 31.9859 8.01406 35 11.7188 35H16.4844C16.9159 35 17.2656 35.3498 17.2656 35.7812C17.2656 36.2127 16.9159 36.5625 16.4844 36.5625H11.7188C7.15242 36.5625 3.4375 32.8476 3.4375 28.2812V11.7188C3.4375 7.15242 7.15242 3.4375 11.7188 3.4375H28.2812C32.8476 3.4375 36.5625 7.15242 36.5625 11.7188V28.2812C36.5625 32.8476 32.8476 36.5625 28.2812 36.5625Z" fill="black"/>
<path d="M20 36.5625C19.7945 36.5625 19.593 36.4789 19.4477 36.3336C19.3023 36.1883 19.2188 35.9867 19.2188 35.7812C19.2188 35.5758 19.3023 35.3742 19.4477 35.2289C19.593 35.0836 19.7945 35 20 35C20.2055 35 20.407 35.0836 20.5523 35.2289C20.6977 35.3742 20.7812 35.5758 20.7812 35.7812C20.7812 35.9867 20.6977 36.1883 20.5523 36.3336C20.407 36.4789 20.2055 36.5625 20 36.5625Z" fill="black"/>
<path d="M13.1342 13.511C12.9266 13.511 12.7195 13.4288 12.5658 13.2659C12.2696 12.952 12.284 12.4576 12.5978 12.1615L12.6324 12.1289C12.9474 11.834 13.4417 11.8501 13.7367 12.1649C14.0317 12.4798 14.0156 12.9742 13.7007 13.2692L13.6702 13.2979C13.5192 13.4403 13.3265 13.511 13.1342 13.511Z" fill="black"/>
<path d="M20 30.7812C14.0552 30.7812 9.21875 25.9448 9.21875 20C9.21875 18.1348 9.70289 16.2962 10.6188 14.6833C10.832 14.308 11.3087 14.1767 11.684 14.3897C12.0592 14.6028 12.1906 15.0797 11.9776 15.4548C11.1949 16.833 10.7812 18.4048 10.7812 20C10.7812 25.0832 14.9168 29.2188 20 29.2188C25.0832 29.2188 29.2188 25.0832 29.2188 20C29.2188 14.9168 25.0832 10.7812 20 10.7812C18.5113 10.7812 17.0908 11.1248 15.7779 11.8026C15.3945 12.0004 14.9233 11.8501 14.7253 11.4667C14.5274 11.0833 14.6778 10.612 15.0612 10.4141C16.5763 9.63211 18.2841 9.21875 20 9.21875C25.9448 9.21875 30.7812 14.0552 30.7812 20C30.7812 25.9448 25.9448 30.7812 20 30.7812Z" fill="black"/>
<path d="M20 27.0312C16.123 27.0312 12.9688 23.877 12.9688 20C12.9688 16.123 16.123 12.9688 20 12.9688C23.877 12.9688 27.0312 16.123 27.0312 20C27.0312 23.877 23.877 27.0312 20 27.0312ZM20 14.5312C16.9845 14.5312 14.5312 16.9845 14.5312 20C14.5312 23.0155 16.9845 25.4688 20 25.4688C23.0155 25.4688 25.4688 23.0155 25.4688 20C25.4688 16.9845 23.0155 14.5312 20 14.5312Z" fill="black"/>
<path d="M30.2539 12.7148C28.617 12.7148 27.2852 11.383 27.2852 9.74609C27.2852 8.10914 28.617 6.77734 30.2539 6.77734C31.8909 6.77734 33.2227 8.10914 33.2227 9.74609C33.2227 11.383 31.8909 12.7148 30.2539 12.7148ZM30.2539 8.33984C29.4785 8.33984 28.8477 8.9707 28.8477 9.74609C28.8477 10.5215 29.4785 11.1523 30.2539 11.1523C31.0293 11.1523 31.6602 10.5215 31.6602 9.74609C31.6602 8.9707 31.0293 8.33984 30.2539 8.33984Z" fill="black"/>
</svg>
