<svg width="40" height="40" viewBox="0 0 40 40" fill="none" xmlns="http://www.w3.org/2000/svg">
<path d="M20 35.9585C29.3198 35.9585 36.875 30.7818 36.875 24.396C36.875 18.0102 29.3198 12.8335 20 12.8335C10.6802 12.8335 3.125 18.0102 3.125 24.396C3.125 30.7818 10.6802 35.9585 20 35.9585Z" fill="#F0F0FA"/>
<path d="M33.0469 10.2914C34.7728 10.2914 36.1719 8.89227 36.1719 7.16638C36.1719 5.44049 34.7728 4.04138 33.0469 4.04138C31.321 4.04138 29.9219 5.44049 29.9219 7.16638C29.9219 8.89227 31.321 10.2914 33.0469 10.2914Z" fill="#F0F0FA"/>
<path d="M8.09555 16.2017C7.31906 15.5062 6.29375 15.0828 5.1693 15.0828C2.74586 15.0828 0.78125 17.0474 0.78125 19.4708C0.78125 21.1818 1.76117 22.663 3.18977 23.3867C3.54336 20.5872 5.35172 18.0732 8.09555 16.2017Z" fill="#F0F0FA"/>
<path d="M34.8307 15.0828C33.7062 15.0828 32.6809 15.5062 31.9044 16.2017C34.6483 18.0731 36.4566 20.5872 36.8102 23.3866C38.2388 22.663 39.2187 21.1817 39.2187 19.4708C39.2187 17.0474 37.2541 15.0828 34.8307 15.0828Z" fill="#F0F0FA"/>
<path d="M25.857 24.757C27.2378 24.757 28.357 23.6377 28.357 22.257C28.357 20.8763 27.2378 19.757 25.857 19.757C24.4763 19.757 23.357 20.8763 23.357 22.257C23.357 23.6377 24.4763 24.757 25.857 24.757Z" fill="#FF6E37"/>
<path d="M14.3578 24.757C15.7385 24.757 16.8578 23.6377 16.8578 22.257C16.8578 20.8763 15.7385 19.757 14.3578 19.757C12.9771 19.757 11.8578 20.8763 11.8578 22.257C11.8578 23.6377 12.9771 24.757 14.3578 24.757Z" fill="#FF6E37"/>
<path d="M31.5564 33.604C31.3008 33.604 31.0502 33.4787 30.9006 33.2485C30.6654 32.8867 30.7681 32.4028 31.1298 32.1676L31.1482 32.1557C31.5101 31.9205 31.994 32.0234 32.2291 32.385C32.4642 32.7468 32.3615 33.2307 31.9998 33.4659L31.9814 33.4778C31.85 33.5632 31.7023 33.604 31.5564 33.604Z" fill="black"/>
<path d="M27.3053 6.84605C27.2431 6.84605 27.18 6.83855 27.1169 6.82292C27.0957 6.81769 27.0745 6.81261 27.0533 6.80769C26.6332 6.70956 26.3722 6.28933 26.4704 5.86917C26.5685 5.44902 26.9887 5.18792 27.4089 5.28621C27.4367 5.29269 27.4647 5.29941 27.4925 5.30636C27.9112 5.41011 28.1667 5.8337 28.063 6.25245C27.9749 6.60816 27.656 6.84605 27.3053 6.84605Z" fill="black"/>
<path d="M33.0469 11.0724C30.893 11.0724 29.1406 9.32004 29.1406 7.16614C29.1406 5.01223 30.893 3.25989 33.0469 3.25989C35.2008 3.25989 36.9531 5.01223 36.9531 7.16614C36.9531 9.32004 35.2008 11.0724 33.0469 11.0724ZM33.0469 4.82239C31.7545 4.82239 30.7031 5.87379 30.7031 7.16614C30.7031 8.45848 31.7545 9.50989 33.0469 9.50989C34.3392 9.50989 35.3906 8.45848 35.3906 7.16614C35.3906 5.87379 34.3392 4.82239 33.0469 4.82239Z" fill="black"/>
<path d="M40 19.4708C40 16.6204 37.681 14.3015 34.8307 14.3015C33.7618 14.3015 32.7286 14.6322 31.8629 15.2404C28.9917 13.4215 25.3909 12.3292 21.5373 12.0992L22.2445 9.82802C22.601 8.6831 23.3836 7.74787 24.4481 7.19443C24.8309 6.99544 24.98 6.5238 24.781 6.14091C24.582 5.7581 24.1104 5.60904 23.7275 5.8081C22.2904 6.55513 21.234 7.81779 20.7527 9.36349L19.9151 12.0533C15.5185 12.0677 11.3663 13.1947 8.13719 15.2404C7.27148 14.6322 6.2382 14.3015 5.16937 14.3015C2.31898 14.3015 0 16.6204 0 19.4708C0 21.2465 0.893125 22.8648 2.36344 23.8122C2.35078 24.0061 2.34375 24.2008 2.34375 24.3964C2.34375 27.7504 4.21969 30.8828 7.62594 33.2167C10.942 35.4888 15.3364 36.7401 20 36.7401C23.3139 36.7401 26.5421 36.0986 29.3357 34.8849C29.7313 34.7129 29.9128 34.2527 29.7409 33.857C29.569 33.4613 29.1087 33.2798 28.713 33.4518C26.1144 34.5808 23.1016 35.1776 20.0001 35.1776C15.6487 35.1776 11.5677 34.0235 8.50922 31.9278C5.54094 29.894 3.90625 27.2193 3.90625 24.3964C3.90625 21.5734 5.54094 18.8986 8.50914 16.8649C11.5677 14.7692 15.6486 13.6151 20 13.6151C24.3514 13.6151 28.4323 14.7692 31.4909 16.8649C34.4591 18.8987 36.0938 21.5734 36.0938 24.3964C36.0938 26.5 35.178 28.5426 33.4456 30.3035C33.143 30.6111 33.147 31.1058 33.4545 31.4083C33.7623 31.7111 34.2569 31.7069 34.5594 31.3994C36.5854 29.3401 37.6562 26.9185 37.6562 24.3964C37.6562 24.2008 37.6492 24.0061 37.6366 23.8122C39.1069 22.8648 40 21.2465 40 19.4708ZM1.5625 19.4708C1.5625 17.4819 3.18047 15.864 5.1693 15.864C5.71984 15.864 6.25711 15.9893 6.74367 16.2257C4.63805 17.8905 3.24094 19.8936 2.65594 22.059C1.96523 21.3911 1.5625 20.4663 1.5625 19.4708ZM37.3441 22.0591C36.7591 19.8937 35.3619 17.8905 33.2563 16.2258C33.743 15.9894 34.2802 15.864 34.8307 15.864C36.8195 15.864 38.4375 17.482 38.4375 19.4708C38.4375 20.4663 38.0348 21.3911 37.3441 22.0591Z" fill="black"/>
<path d="M25.8569 25.5385C24.0476 25.5385 22.5756 24.0665 22.5756 22.2572C22.5756 20.4479 24.0476 18.976 25.8569 18.976C27.6662 18.976 29.1381 20.4479 29.1381 22.2572C29.1381 24.0665 27.6662 25.5385 25.8569 25.5385ZM25.8569 20.5385C24.9091 20.5385 24.1381 21.3095 24.1381 22.2572C24.1381 23.2049 24.9091 23.976 25.8569 23.976C26.8046 23.976 27.5756 23.2049 27.5756 22.2572C27.5756 21.3095 26.8046 20.5385 25.8569 20.5385Z" fill="black"/>
<path d="M14.3575 25.5385C12.5482 25.5385 11.0762 24.0665 11.0762 22.2572C11.0762 20.4479 12.5482 18.976 14.3575 18.976C16.1668 18.976 17.6387 20.4479 17.6387 22.2572C17.6387 24.0665 16.1669 25.5385 14.3575 25.5385ZM14.3575 20.5385C13.4098 20.5385 12.6387 21.3095 12.6387 22.2572C12.6387 23.2049 13.4098 23.976 14.3575 23.976C15.3052 23.976 16.0762 23.2049 16.0762 22.2572C16.0762 21.3095 15.3052 20.5385 14.3575 20.5385Z" fill="black"/>
<path d="M19.9996 31.9107C17.6554 31.9107 15.4181 31.1878 13.5281 29.8193C13.1786 29.5663 13.1004 29.0779 13.3535 28.7284C13.6065 28.3788 14.095 28.3007 14.4444 28.5538C17.7773 30.9668 22.2509 30.9605 25.5769 28.5383C25.9254 28.2845 26.4141 28.3609 26.6683 28.7099C26.9223 29.0587 26.8455 29.5473 26.4967 29.8014C24.6061 31.1782 22.3647 31.9077 20.0147 31.9107C20.0097 31.9107 20.0045 31.9107 19.9996 31.9107Z" fill="black"/>
</svg>
