<svg width="40" height="40" viewBox="0 0 40 40" fill="none" xmlns="http://www.w3.org/2000/svg">
<g clip-path="url(#clip0)">
<path d="M39.2188 8.08243C37.8104 8.70704 36.2852 9.13939 34.6907 9.3286C36.3212 8.35267 37.5642 6.80634 38.1619 4.96267C36.6364 5.8665 34.9489 6.52408 33.1413 6.87541C31.712 5.35002 29.6582 4.38916 27.3942 4.38916C23.0433 4.38916 19.5121 7.92033 19.5121 12.2713C19.5121 12.8928 19.5841 13.4904 19.7133 14.067C13.1553 13.7366 7.35117 10.6048 3.45665 5.83056C2.77509 6.99259 2.38767 8.35282 2.38767 9.79704C2.38767 12.5296 3.78391 14.9466 5.89477 16.352C4.60376 16.319 3.39649 15.9556 2.33064 15.367V15.4631C2.33064 19.2856 5.0511 22.4744 8.65125 23.204C7.99367 23.3783 7.29109 23.4712 6.57649 23.4712C6.07203 23.4712 5.57961 23.4262 5.08711 23.3331C6.09602 26.4649 9.00258 28.7379 12.4527 28.8101C9.75328 30.9208 6.35125 32.176 2.6579 32.176C2.02431 32.176 1.4029 32.14 0.781342 32.071C4.27641 34.3109 8.41719 35.6111 12.8731 35.6111C27.3702 35.6111 35.3003 23.6004 35.3003 13.1871L35.2763 12.1662C36.8256 11.052 38.1619 9.6679 39.2188 8.08243Z" fill="#78D2FA"/>
<path d="M12.8731 36.3923C8.42653 36.3923 4.09951 35.1255 0.359749 32.7287C0.0541248 32.5328 -0.0763438 32.1523 0.044906 31.8101C0.166078 31.468 0.507249 31.2544 0.867717 31.2944C1.4742 31.3619 2.05975 31.3947 2.65795 31.3947C5.41419 31.3947 8.04325 30.6742 10.3625 29.2959C7.55911 28.5435 5.26029 26.4182 4.34365 23.5727C4.25912 23.3103 4.31912 23.0229 4.50146 22.8162C4.68388 22.6095 4.96169 22.5144 5.2324 22.5654C5.23708 22.5663 5.24177 22.5672 5.24646 22.5681C2.99201 20.9791 1.54959 18.3534 1.54959 15.463V15.3669C1.54959 15.0904 1.69568 14.8346 1.93373 14.6941C2.17186 14.5536 2.46646 14.5494 2.70849 14.683C2.91435 14.7967 3.12295 14.8996 3.33373 14.9917C2.22623 13.5153 1.60654 11.7015 1.60654 9.79683C1.60654 8.25543 2.01334 6.74715 2.78295 5.43504C2.9124 5.21434 3.1417 5.07106 3.39677 5.05137C3.65162 5.03207 3.90045 5.13824 4.06216 5.33653C5.42279 7.00449 7.01653 8.45699 8.79926 9.65363C9.15747 9.89409 9.25301 10.3795 9.01247 10.7377C8.772 11.0959 8.28669 11.1914 7.92841 10.9509C6.35263 9.89316 4.91466 8.64902 3.64099 7.24269C3.33037 8.04996 3.16896 8.91636 3.16896 9.79675C3.16896 12.1772 4.34982 14.3846 6.32779 15.7013C6.61747 15.8942 6.74466 16.2555 6.63974 16.5874C6.53466 16.9192 6.22278 17.141 5.8749 17.1327C4.96162 17.1093 4.06888 16.9388 3.20756 16.6239C3.68381 19.4902 5.89232 21.8476 8.80645 22.4382C9.16223 22.5103 9.42145 22.818 9.43215 23.1809C9.44286 23.5438 9.20223 23.8661 8.8513 23.9591C8.11677 24.1537 7.35138 24.2523 6.57638 24.2523C6.49005 24.2523 6.40419 24.2512 6.31896 24.2488C7.51419 26.4989 9.85387 27.9742 12.469 28.0288C12.7993 28.0357 13.0896 28.2497 13.1939 28.5631C13.2983 28.8766 13.1942 29.2218 12.9339 29.4253C10.3207 31.4687 7.23903 32.6601 3.95513 32.9083C6.74474 34.1716 9.77762 34.8298 12.873 34.8298C26.4181 34.8298 34.514 23.8318 34.5189 13.1961L34.4952 12.1843C34.4891 11.9265 34.6107 11.6823 34.8201 11.5317C35.5802 10.9851 36.2826 10.3744 36.923 9.70441C36.219 9.88495 35.5042 10.0185 34.7826 10.1042C34.4166 10.1476 34.0702 9.92933 33.9512 9.58058C33.8322 9.23183 33.9731 8.8473 34.2894 8.658C35.129 8.15543 35.8496 7.4891 36.4138 6.7059C35.4073 7.12027 34.3629 7.43355 33.2902 7.64199C33.0263 7.6934 32.7548 7.60535 32.5711 7.40926C31.2377 5.98621 29.3507 5.17004 27.3941 5.17004C23.4787 5.17004 20.2932 8.35542 20.2932 12.2709C20.2932 12.809 20.3546 13.3558 20.4755 13.8959C20.5289 14.1341 20.4678 14.3835 20.3104 14.5701C20.1531 14.7567 19.9184 14.8592 19.6738 14.8468C18.0048 14.7628 16.3468 14.4996 14.7459 14.0646C14.3295 13.9515 14.0836 13.5223 14.1968 13.1059C14.3099 12.6895 14.7392 12.4436 15.1555 12.5567C16.3377 12.8779 17.5535 13.0987 18.7817 13.2157C18.7478 12.9 18.7307 12.5844 18.7307 12.2709C18.7307 7.49386 22.617 3.60754 27.3941 3.60754C29.6316 3.60754 31.795 4.48309 33.3978 6.0234C34.9323 5.68074 36.399 5.09864 37.7635 4.29012C38.043 4.12457 38.396 4.14918 38.6498 4.35215C38.9035 4.55512 39.0051 4.89403 38.9049 5.20317C38.5824 6.19816 38.0878 7.11793 37.4515 7.92425C37.9424 7.76441 38.4264 7.57879 38.9019 7.36793C39.2197 7.22699 39.5922 7.31293 39.8162 7.57871C40.0401 7.84449 40.0616 8.22629 39.8687 8.51543C38.8325 10.0699 37.5548 11.4267 36.0667 12.5532L36.0812 13.1684C36.0813 13.1745 36.0814 13.1807 36.0814 13.1867C36.0814 18.8167 33.9045 24.515 30.109 28.8204C28.0482 31.158 25.5963 32.995 22.8215 34.2803C19.7966 35.6819 16.4494 36.3923 12.8731 36.3923ZM11.5096 12.846C11.4007 12.846 11.2901 12.8231 11.1847 12.7748L11.1485 12.7582C10.7567 12.5774 10.5857 12.1132 10.7665 11.7214C10.9473 11.3296 11.4114 11.1585 11.8032 11.3395L11.8356 11.3542C12.2279 11.534 12.4001 11.9977 12.2204 12.3899C12.0889 12.6767 11.8057 12.846 11.5096 12.846Z" fill="black"/>
<path d="M29.0251 24.0321C28.8885 24.0321 28.7503 23.9963 28.6247 23.9209C28.2547 23.6989 28.1341 23.2202 28.3561 22.8502L28.3575 22.8479C28.5795 22.4779 29.0595 22.358 29.4294 22.5799C29.7994 22.8019 29.9193 23.2818 29.6974 23.6518C29.5507 23.8962 29.291 24.0321 29.0251 24.0321Z" fill="black"/>
<path d="M22.3878 30.5657C22.1166 30.5657 21.8531 30.4243 21.7089 30.172C21.4948 29.7974 21.6249 29.3202 21.9995 29.1061C23.8206 28.0652 25.4375 26.6961 26.8051 25.0369C27.0795 24.7039 27.572 24.6566 27.9048 24.931C28.2378 25.2054 28.2852 25.6978 28.0108 26.0307C26.5223 27.8365 24.7607 29.3276 22.7748 30.4627C22.6525 30.5325 22.5192 30.5657 22.3878 30.5657Z" fill="black"/>
</g>
<defs>
<clipPath id="clip0">
<rect width="40" height="40" fill="white"/>
</clipPath>
</defs>
</svg>
