<svg width="40" height="40" viewBox="0 0 40 40" fill="none" xmlns="http://www.w3.org/2000/svg">
<path d="M38.4155 10.5978C37.9735 8.91714 36.671 7.59347 35.0173 7.14425C32.0198 6.328 23.0741 6.328 20 6.328C16.9259 6.328 7.98023 6.328 4.98273 7.14425C3.32898 7.59347 2.02648 8.91714 1.58445 10.5978C0.78125 13.644 0.78125 19.9999 0.78125 19.9999C0.78125 19.9999 0.78125 26.3557 1.58445 29.402C2.02648 31.0826 3.32898 32.4063 4.98273 32.8555C7.98023 33.6718 15.4688 33.6718 20 33.6718C24.5312 33.6718 32.0198 33.6718 35.0173 32.8555C36.671 32.4063 37.9735 31.0826 38.4155 29.402C39.2188 26.3557 39.2188 19.9999 39.2188 19.9999C39.2188 19.9999 39.2188 13.644 38.4155 10.5978Z" fill="#FF5A5A"/>
<path d="M20.1955 7.10965C20.1948 7.10965 20.1941 7.10965 20.1934 7.10965L20.1368 7.1095C19.7059 7.10833 19.3575 6.75864 19.3577 6.32801C19.3577 6.32739 19.3577 6.32676 19.3577 6.32614C19.3588 5.89536 19.7084 5.547 20.1389 5.547C20.1397 5.547 20.1403 5.547 20.1411 5.547L20.1977 5.54715C20.6285 5.54833 20.9769 5.89801 20.9768 6.32864C20.9768 6.32926 20.9768 6.32989 20.9768 6.33051C20.9756 6.76129 20.626 7.10965 20.1955 7.10965Z" fill="black"/>
<path d="M20 34.4531C19.505 34.4531 7.84055 34.4435 4.77742 33.6094C2.855 33.0872 1.3418 31.5512 0.828828 29.6008C0.00945315 26.4928 0 20.2637 0 20C0 19.7363 0.00945315 13.5072 0.828984 10.3988C1.3418 8.44884 2.855 6.91275 4.77789 6.39048C6.80141 5.83947 12.4944 5.64275 16.9138 5.57486C17.3441 5.57111 17.7004 5.91259 17.707 6.344C17.7136 6.77541 17.3693 7.13056 16.9379 7.13712C10.8176 7.23127 6.64477 7.5015 5.18797 7.89822C3.80234 8.27463 2.71117 9.38517 2.33992 10.7967C1.57187 13.7098 1.5625 19.9374 1.5625 20C1.5625 20.0625 1.57188 26.2902 2.33984 29.2029C2.71117 30.6149 3.80234 31.7254 5.1875 32.1017C8.05109 32.8814 19.8809 32.8906 20 32.8906C20.1191 32.8906 31.9489 32.8815 34.812 32.1018C36.1977 31.7254 37.2888 30.6149 37.6601 29.2034C38.4281 26.2902 38.4375 20.0625 38.4375 19.9999C38.4375 19.9374 38.4281 13.7098 37.6602 10.797C37.2888 9.38509 36.1977 8.27455 34.8125 7.8983C33.387 7.51009 29.334 7.24173 23.3996 7.14252C22.9682 7.13533 22.6243 6.7797 22.6315 6.3483C22.6387 5.91689 22.9968 5.57431 23.4257 5.58017C27.7132 5.65181 33.2402 5.85064 35.2226 6.39056C37.145 6.91275 38.6582 8.44877 39.1712 10.3992C39.9905 13.5072 40 19.7363 40 20C40 20.2637 39.9905 26.4928 39.171 29.6013C38.6582 31.5512 37.145 33.0873 35.2221 33.6095C32.1595 34.4435 20.495 34.4531 20 34.4531Z" fill="black"/>
<path d="M16.2566 14.4938L25.9441 20.1188L16.2566 25.7438V14.4938Z" fill="white"/>
<path d="M4.53125 25.861C4.09977 25.861 3.75 25.5112 3.75 25.0797V18.7125C3.75 18.281 4.09977 17.9313 4.53125 17.9313C4.96273 17.9313 5.3125 18.281 5.3125 18.7125V25.0797C5.3125 25.5112 4.96273 25.861 4.53125 25.861Z" fill="black"/>
<path d="M4.53125 15.9483C4.09977 15.9483 3.75 15.5985 3.75 15.1671V15.1578C3.75 14.7264 4.09977 14.3766 4.53125 14.3766C4.96273 14.3766 5.3125 14.7264 5.3125 15.1578V15.1671C5.3125 15.5985 4.96273 15.9483 4.53125 15.9483Z" fill="black"/>
<path d="M16.2566 26.5251C16.122 26.5251 15.9874 26.4904 15.8668 26.4209C15.6246 26.2815 15.4753 26.0234 15.4753 25.7438V14.4938C15.4753 14.2144 15.6246 13.9562 15.8668 13.8167C16.109 13.6773 16.4072 13.6778 16.6489 13.8182L26.3364 19.4432C26.5772 19.5831 26.7254 19.8404 26.7254 20.1188C26.7254 20.3973 26.5773 20.6546 26.3364 20.7945L16.6489 26.4195C16.5277 26.4899 16.3921 26.5251 16.2566 26.5251ZM17.0378 15.8509V24.3868L24.3882 20.1188L17.0378 15.8509Z" fill="black"/>
</svg>
