<svg width="18" height="19" viewBox="0 0 18 19" fill="none" xmlns="http://www.w3.org/2000/svg">
<g clip-path="url(#clip0)">
<path d="M17.7123 8.80055L11.2119 2.29996C11.0263 2.1144 10.779 2.01254 10.5153 2.01254C10.2513 2.01254 10.0041 2.11454 9.81855 2.29996L9.22836 2.89029C9.04295 3.07556 8.94081 3.32302 8.94081 3.58687C8.94081 3.85058 9.04295 4.10638 9.22836 4.29165L13.0206 8.09226H0.972431C0.429216 8.09226 0 8.51752 0 9.06089V9.89547C0 10.4388 0.429216 10.907 0.972431 10.907H13.0636L9.22851 14.7288C9.0431 14.9144 8.94095 15.1551 8.94095 15.4189C8.94095 15.6825 9.0431 15.9267 9.22851 16.1122L9.8187 16.7006C10.0043 16.8862 10.2514 16.9873 10.5154 16.9873C10.7791 16.9873 11.0264 16.8848 11.212 16.6993L17.7124 10.1988C17.8984 10.0127 18.0007 9.7642 18 9.50005C18.0006 9.23503 17.8984 8.9864 17.7123 8.80055Z" fill="#312F2F"/>
</g>
<defs>
<clipPath id="clip0">
<rect width="18" height="18" fill="white" transform="translate(0 0.5)"/>
</clipPath>
</defs>
</svg>
