<svg width="21" height="20" viewBox="0 0 21 20" fill="none" xmlns="http://www.w3.org/2000/svg">
<g clip-path="url(#clip0)">
<path d="M10.5 0C4.9861 0 0.5 4.4861 0.5 10C0.5 15.5139 4.9861 20 10.5 20C16.0139 20 20.5 15.5139 20.5 10C20.5 4.4861 16.0139 0 10.5 0ZM10.5 18.75C5.67517 18.75 1.75001 14.8248 1.75001 10C1.75001 5.17517 5.67517 1.25001 10.5 1.25001C15.3248 1.25001 19.25 5.17517 19.25 10C19.25 14.8248 15.3248 18.75 10.5 18.75Z" fill="black"/>
<path d="M11.125 3.75003H9.875V10.2588L13.8081 14.1919L14.6919 13.3081L11.125 9.74122V3.75003Z" fill="black"/>
</g>
<defs>
<clipPath id="clip0">
<rect width="20" height="20" fill="white" transform="translate(0.5)"/>
</clipPath>
</defs>
</svg>
