<svg width="262" height="456" viewBox="0 0 262 456" fill="none" xmlns="http://www.w3.org/2000/svg">
<path d="M49.2945 98.1266C48.451 102.325 47.713 122.439 47.4494 131.972C59.6794 135.121 72.2255 129.086 76.9699 125.675C70.4332 115.81 64.4063 102.499 62.2097 97.0771C62.7368 94.191 66.1633 92.0921 69.3262 91.5673C71.8565 91.1475 72.1375 90.1679 71.962 89.7307H34.5342C35.5885 90.4302 38.9096 92.197 43.7594 93.6663C48.6092 95.1356 49.47 97.2519 49.2945 98.1266Z" fill="#FFC86E"/>
<path d="M248.821 289.395C247.345 287.716 238.895 265.431 234.852 254.499L253.302 251.351C253.513 270.452 253.74 277.85 253.829 279.162C256.375 281.786 261.526 288.03 261.737 292.018C261.947 296.006 260.593 295.954 259.891 295.429C258.748 292.543 255.938 286.823 253.829 287.033C251.721 287.243 253.476 289.395 254.62 290.444C256.729 292.753 255.5 293.855 254.62 294.117C253.566 293.907 250.313 290.881 248.821 289.395Z" fill="#FFC86E"/>
<path d="M0.00582886 83.9586C17.8409 88.856 63.7384 95.7127 104.645 83.9586C76.4428 82.9091 16.0312 81.4398 0.00582886 83.9586Z" fill="#EDE8E1"/>
<path d="M61.6825 56.672C38.6988 46.597 24.694 54.9231 20.5648 60.3452L20.0377 65.0679L29.7899 79.4982L56.411 83.4338L73.2799 78.9735L73.807 68.7411C69.5898 61.8145 63.9667 57.8091 61.6825 56.672Z" fill="#FF683B"/>
<path d="M17.1383 75.3003C15.8731 71.5222 18.8953 63.756 20.5648 60.3452C20.9865 69.1609 38.1363 72.4143 46.6587 72.939C47.2913 90.7802 65.021 77.574 73.807 68.7411C75.3004 70.7524 78.7622 74.7756 80.66 74.7756C82.5577 74.7756 83.5593 75.3003 83.8229 75.5627C86.1423 78.5012 82.1534 81.6849 79.8692 82.9091C68.2719 86.2674 39.1906 85.008 26.0998 83.9586C17.4018 83.9586 15.5568 80.023 16.6111 78.7111C17.4546 77.6617 17.3138 75.9998 17.1383 75.3003Z" fill="#EB6037"/>
<path d="M59.0468 77.6617C50.1906 82.0695 47.0978 76.3498 46.6587 72.939C45.868 82.6467 51.3599 83.9512 57.4654 81.0725C62.4733 78.7112 68.5356 72.939 70.3806 69.2658C65.7416 74.0934 60.8918 76.8746 59.0468 77.6617Z" fill="#412454"/>
<path d="M69.8534 69.5282C68.7991 68.6886 66.4269 64.4555 65.3726 62.4442C65.7943 61.6046 67.6567 61.7447 68.5355 61.9194C75.3885 62.9689 78.815 55.0978 79.8693 53.5236C80.7127 52.2642 81.9779 52.9988 82.505 53.5236C82.5931 54.0483 83.1376 55.2028 84.6136 55.6225C86.0897 56.0423 85.1408 57.7215 84.6136 58.2463C80.66 59.0334 71.962 65.0679 71.1713 66.9045C70.5387 68.3738 70.0289 69.2658 69.8534 69.5282Z" fill="#F8BA59"/>
<path d="M38.4879 47.7514C36.1684 47.7514 29.9654 50.0253 27.1541 51.1623C26.715 51.3372 25.8363 51.2672 25.8363 49.588C25.8363 47.4891 28.472 46.9643 30.5806 44.0783C32.2675 41.7694 27.4177 40.8423 24.782 40.6674C22.1462 40.4051 16.8747 38.7784 16.8747 34.3705C16.8747 29.9627 21.2674 28.5109 23.4641 28.336C24.9575 28.2485 27.9449 27.7588 27.9449 26.4994C27.9449 25.24 24.0793 22.3015 22.1462 20.9896C24.0793 20.7273 28.5247 20.7273 30.8442 22.8262C33.1637 24.9252 30.0535 30.435 27.9449 32.534C25.0455 34.6329 32.6012 38.5685 36.6429 40.4051C38.4879 42.2417 41.3872 47.7514 38.4879 47.7514Z" fill="#EDE8E2"/>
<path d="M61.6825 8.13442C54.935 6.45525 52.1938 2.18736 51.6667 0.263306L49.8216 3.93649C45.0773 14.1689 53.7753 17.055 55.0932 17.8421C56.1475 18.4718 55.7083 19.6787 55.3567 20.2035C52.6329 21.6902 46.8169 25.6083 45.3409 29.3864C43.8648 33.1646 50.5243 37.9572 54.0389 39.8813C54.2144 40.4935 53.9861 42.0852 51.6667 43.5544C48.7673 45.391 47.713 49.3266 48.7673 48.0147C49.6108 46.9653 57.7289 50.3761 61.6825 52.2127C64.002 51.583 64.9335 44.9538 65.109 41.7178C65.021 40.7558 63.3694 37.7823 57.4653 33.5844C51.5612 29.3864 58.8712 22.0401 63.264 18.8916C65.5481 16.0055 68.4301 9.81359 61.6825 8.13442Z" fill="#EDE8E2"/>
<path d="M189.517 92.0921C188.462 91.8822 181.699 91.305 178.447 91.0426C178.093 91.7421 177.34 93.194 177.129 93.4039C176.865 93.6663 175.284 96.29 174.757 96.5524C174.335 96.7623 173.702 98.9137 173.439 99.9632C174.403 100.4 176.391 101.275 176.602 101.275C176.812 101.275 184.946 97.9519 188.99 96.29L189.517 92.0921Z" fill="#4E2753"/>
<path d="M123.359 222.49C122.516 207.798 122.129 185.584 122.041 176.313C109.601 197.513 86.8103 197.74 76.9699 195.204C55.4622 192.055 48.3282 151.738 47.4495 131.972C57.7816 132.602 71.4348 128.037 76.9699 125.676C80.1328 129.873 84.7892 148.414 86.7222 157.16C93.2589 138.059 107.545 119.116 113.871 112.032C124.203 101.957 149.98 95.0658 161.314 92.8792C161.314 95.6078 164.651 98.2142 166.586 99.1761C176.285 102.534 185.916 95.8529 189.517 92.0921C247.503 105.735 256.201 203.95 253.302 251.351C246.976 254.29 238.368 254.674 234.852 254.5C233.27 251.263 228.315 237.708 221.146 209.372C213.977 181.036 205.858 161.358 202.695 155.061C198.478 163.877 203.049 196.69 205.858 211.995C165.795 228.158 134.166 225.726 123.359 222.49Z" fill="#EDE8E2"/>
<path d="M187.935 216.98C178.868 177.31 187.145 146.928 192.416 136.695C190.729 153.907 197.514 161.358 201.114 162.932C200.481 175.736 204.103 201.413 205.858 211.995C204.382 214.094 193.207 215.756 187.935 216.98Z" fill="#D8D2CA" fill-opacity="0.88"/>
<path d="M253.302 251.351C252.67 251.771 245.922 253.975 241.969 254.237C252.933 228.63 234.346 164.769 227.208 135.646C225.1 127.04 226.328 121.652 227.208 120.166C259.101 166.081 254.093 250.826 253.302 251.351Z" fill="#D8D2CA" fill-opacity="0.88"/>
<path d="M82.505 177.1C68.7991 175.841 55.5323 146.49 50.8759 132.235C49.5581 131.972 48.3282 132.235 47.1859 131.972C50.3488 162.932 55.0932 186.545 73.5434 194.679C91.2273 202.474 107.808 192.318 113.343 186.808L114.134 168.179C109.565 171.94 96.211 178.359 82.505 177.1Z" fill="#D8D2CA" fill-opacity="0.88"/>
<path d="M202.695 155.061C199.743 153.172 194.878 141.068 192.943 135.383C192.326 136.258 191.362 140.106 192.416 148.502C193.47 156.898 198.568 162.145 201.114 163.719C201.536 161.201 202.522 156.985 202.695 155.061Z" fill="#68406D"/>
<path d="M120.987 157.422C120.987 151.125 118.703 139.931 117.561 135.121C115.452 140.788 112.553 172.64 113.08 187.07C114.767 186.65 119.933 179.986 122.041 176.313C121.69 172.815 120.987 163.719 120.987 157.422Z" fill="#68406D"/>
<path d="M164.213 91.8297C162.105 91.8297 159.295 94.2787 158.151 95.5029C157.94 96.5524 159.469 100.838 160.26 102.849C160.471 101.38 161.404 100.313 161.841 99.9632C162.896 99.1236 162.985 99.6132 162.896 99.9632C152.774 134.596 150.244 177.712 150.244 194.941C151.087 207.115 153.407 219.254 154.461 223.802C155.094 223.802 156.833 223.627 157.624 223.54C154.197 201.763 152.352 195.204 154.988 161.358C157.097 134.281 162.896 110.021 165.531 101.275C165.795 100.576 166.427 99.1761 166.849 99.1761C167.271 99.1761 168.431 101.975 168.958 103.374C170.856 102.534 178.009 97.7766 181.346 95.5029C181.346 94.4534 179.411 92.0921 178.447 91.0426C177.603 91.0426 169.485 95.2405 165.531 97.3395C165.32 94.8207 164.567 92.6168 164.213 91.8297Z" fill="white"/>
<path d="M153.67 441.307V435.797C149.98 434.66 142.864 433.325 142.864 437.109C142.864 440.52 141.809 439.733 137.856 445.505L139.964 446.817L145.763 447.604L153.67 441.307Z" fill="#FFC86E"/>
<path d="M228.969 441.307V435.797C225.279 434.66 218.162 433.325 218.162 437.109C218.162 440.52 217.108 439.733 213.154 445.505L215.263 446.817L221.062 447.604L228.969 441.307Z" fill="#FFC86E"/>
<path d="M157.438 453.901C162.922 451.802 157.361 443.931 153.671 440.258C151.123 442.007 144.892 445.453 142.151 445.243C139.409 445.033 140.898 441.832 142.04 440.258C124.117 449.703 121.064 453.114 121.592 453.901C122.646 455.475 150.585 456.525 157.438 453.901Z" fill="#4E2753"/>
<path d="M232.738 453.901C238.22 451.802 232.659 443.931 228.969 440.258C226.423 442.007 220.192 445.453 217.45 445.243C214.709 445.033 216.196 441.832 217.34 440.258C199.416 449.703 196.364 453.114 196.891 453.901C197.946 455.475 225.885 456.525 232.738 453.901Z" fill="#4E2753"/>
<path d="M123.359 222.49C137.592 226.163 157.272 223.627 167.376 222.49C163.581 262.58 156.307 405.975 154.989 436.585H139.174C119.564 397.124 109.917 253.45 123.359 222.49Z" fill="#4E2753"/>
<path d="M161.578 223.277C178.974 219.604 188.99 216.456 205.858 211.995C221.409 255.811 232.743 405.975 231.425 436.585L213.239 437.634C194.525 371.517 168.167 291.231 161.578 223.277Z" fill="#4E2753"/>
<path d="M178.446 91.0426C178.657 88.9436 177.65 80.1059 177.914 76.9575C174.925 79.4935 168.531 86.8751 167.898 88.7641C167.266 90.6532 164.651 91.742 164.213 91.8297L165.531 97.3395L178.446 91.0426Z" fill="#FFC86E"/>
<path d="M167.635 91.9126C171.852 91.4928 174.309 88.5894 175.015 87.1899C172.553 87.4523 167.582 88.1869 167.371 89.0265C167.16 89.8661 166.058 90.955 165.531 91.305C165.531 91.9346 166.928 91.9126 167.635 91.9126Z" fill="#4E2753"/>
<path d="M170.27 89.0265C176.385 89.4463 178.183 79.7607 177.656 75.3003L165.004 73.9885C164.741 74.688 163.945 76.9575 162.89 79.0564C161.836 81.1554 162.1 84.4786 162.363 85.8781C162.448 86.7528 164.155 88.6067 170.27 89.0265Z" fill="#FFC86E"/>
<path d="M167.371 86.1404C172.221 89.4988 175.716 85.441 176.86 82.992C176.86 89.079 170.882 89.4636 167.898 89.0265C165.115 88.6193 161.361 86.6652 162.627 85.6157C163.892 84.5662 166.317 85.5281 167.371 86.1404Z" fill="#BC7729"/>
<path d="M164.472 79.0564C165.152 79.6315 167.645 79.4673 168.61 79.3875C168.958 79.3581 169.216 79.7055 167.45 81.3264C165.679 82.9473 164.208 82.2048 163.944 81.3264C163.944 80.3682 163.786 78.4813 164.472 79.0564Z" fill="white"/>
<path d="M177.914 84.0415C179.812 83.2019 179.764 78.1864 179.501 75.8251L177.387 75.3833C178.02 76.013 177.651 81.4178 177.914 84.0415Z" fill="#4E2753"/>
<path d="M173.17 79.0564C174.857 79.0564 175.626 76.4327 175.805 75.1209L173.96 74.8585C173.749 75.908 173.344 78.0946 173.17 79.0564Z" fill="#4E2753"/>
<path d="M165.531 69.2658C165.321 69.8955 165.094 72.6766 165.004 73.9885C166.059 74.4083 175.11 75.388 179.501 75.8251C179.923 75.6152 180.555 72.939 180.819 71.6272L184.773 57.4592C185.194 55.9899 184.773 55.0978 184.509 54.8354C179.87 51.0573 170.45 50.8124 166.322 51.1623C164.635 55.3602 165.094 64.9803 165.531 69.2658Z" fill="#F8F7F7"/>
<path d="M165 73.8621C168.374 74.4918 176.07 75.3487 179.497 75.6987C180.129 75.4888 180.641 72.9873 180.815 71.7631L180.551 71.5008L184.768 56.0209C184.557 55.3912 183.624 55.2338 183.187 55.2338L179.233 70.976L177.388 70.4513L181.869 54.4467C181.236 53.817 179.323 53.4848 178.442 53.3972L175.543 70.1889C174.91 70.3988 173.698 69.9265 173.171 69.6642L176.334 52.8724C175.49 52.0328 173.524 52.1728 172.644 52.3477L171.589 69.4018C171.168 69.6117 169.307 69.3142 168.426 69.1394L170.008 52.3477C169.375 51.718 167.81 52.0853 167.109 52.3477V69.1394H165.527C165.105 70.3988 165 72.8126 165 73.8621Z" fill="#D8D2CA" fill-opacity="0.88"/>
</svg>
