<svg width="631" height="456" viewBox="0 0 631 456" fill="none" xmlns="http://www.w3.org/2000/svg">
<path d="M418.294 98.1266C417.451 102.325 416.713 122.439 416.449 131.972C428.679 135.121 441.226 129.086 445.97 125.675C439.433 115.81 433.406 102.499 431.21 97.0771C431.737 94.191 435.163 92.0921 438.326 91.5673C440.857 91.1475 441.138 90.1679 440.962 89.7307H403.534C404.589 90.4302 407.91 92.197 412.759 93.6663C417.609 95.1356 418.47 97.2519 418.294 98.1266Z" fill="#FFC86E"/>
<path d="M617.821 289.395C616.345 287.716 607.895 265.431 603.852 254.499L622.302 251.351C622.513 270.452 622.74 277.85 622.829 279.162C625.375 281.786 630.526 288.03 630.737 292.018C630.947 296.006 629.593 295.954 628.891 295.429C627.748 292.543 624.938 286.823 622.829 287.033C620.721 287.243 622.476 289.395 623.62 290.444C625.729 292.753 624.5 293.855 623.62 294.117C622.566 293.907 619.313 290.881 617.821 289.395Z" fill="#FFC86E"/>
<path d="M369.006 83.9586C386.841 88.856 432.738 95.7127 473.645 83.9586C445.443 82.9091 385.031 81.4398 369.006 83.9586Z" fill="#EDE8E1"/>
<path d="M430.683 56.672C407.699 46.597 393.694 54.9231 389.565 60.3452L389.038 65.0679L398.79 79.4982L425.411 83.4338L442.28 78.9735L442.807 68.7411C438.59 61.8145 432.967 57.8091 430.683 56.672Z" fill="#FF683B"/>
<path d="M386.138 75.3003C384.873 71.5222 387.895 63.756 389.565 60.3452C389.986 69.1609 407.136 72.4143 415.659 72.939C416.291 90.7802 434.021 77.574 442.807 68.7411C444.3 70.7524 447.762 74.7756 449.66 74.7756C451.558 74.7756 452.559 75.3003 452.823 75.5627C455.142 78.5012 451.153 81.6849 448.869 82.9091C437.272 86.2674 408.191 85.008 395.1 83.9586C386.402 83.9586 384.557 80.023 385.611 78.7111C386.455 77.6617 386.314 75.9998 386.138 75.3003Z" fill="#EB6037"/>
<path d="M428.047 77.6617C419.191 82.0695 416.098 76.3498 415.659 72.939C414.868 82.6467 420.36 83.9512 426.465 81.0725C431.473 78.7112 437.536 72.939 439.381 69.2658C434.742 74.0934 429.892 76.8746 428.047 77.6617Z" fill="#412454"/>
<path d="M438.853 69.5282C437.799 68.6886 435.427 64.4555 434.373 62.4442C434.794 61.6046 436.657 61.7447 437.536 61.9194C444.388 62.9689 447.815 55.0978 448.869 53.5236C449.713 52.2642 450.978 52.9988 451.505 53.5236C451.593 54.0483 452.138 55.2028 453.614 55.6225C455.09 56.0423 454.141 57.7215 453.614 58.2463C449.66 59.0334 440.962 65.0679 440.171 66.9045C439.539 68.3738 439.029 69.2658 438.853 69.5282Z" fill="#F8BA59"/>
<path d="M407.488 47.7514C405.168 47.7514 398.965 50.0253 396.154 51.1623C395.715 51.3372 394.836 51.2672 394.836 49.588C394.836 47.4891 397.472 46.9643 399.581 44.0783C401.268 41.7694 396.418 40.8423 393.782 40.6674C391.146 40.4051 385.875 38.7784 385.875 34.3705C385.875 29.9627 390.267 28.5109 392.464 28.336C393.958 28.2485 396.945 27.7588 396.945 26.4994C396.945 25.24 393.079 22.3015 391.146 20.9896C393.079 20.7273 397.525 20.7273 399.844 22.8262C402.164 24.9252 399.053 30.435 396.945 32.534C394.046 34.6329 401.601 38.5685 405.643 40.4051C407.488 42.2417 410.387 47.7514 407.488 47.7514Z" fill="#EDE8E2"/>
<path d="M430.683 8.13442C423.935 6.45525 421.194 2.18736 420.667 0.263306L418.822 3.93649C414.077 14.1689 422.775 17.055 424.093 17.8421C425.147 18.4718 424.708 19.6787 424.357 20.2035C421.633 21.6902 415.817 25.6083 414.341 29.3864C412.865 33.1646 419.524 37.9572 423.039 39.8813C423.214 40.4935 422.986 42.0852 420.667 43.5544C417.767 45.391 416.713 49.3266 417.767 48.0147C418.611 46.9653 426.729 50.3761 430.683 52.2127C433.002 51.583 433.933 44.9538 434.109 41.7178C434.021 40.7558 432.369 37.7823 426.465 33.5844C420.561 29.3864 427.871 22.0401 432.264 18.8916C434.548 16.0055 437.43 9.81359 430.683 8.13442Z" fill="#EDE8E2"/>
<path d="M558.517 92.0921C557.462 91.8822 550.699 91.305 547.447 91.0426C547.093 91.7421 546.34 93.194 546.129 93.4039C545.865 93.6663 544.284 96.29 543.757 96.5524C543.335 96.7623 542.702 98.9137 542.439 99.9632C543.403 100.4 545.391 101.275 545.602 101.275C545.812 101.275 553.946 97.9519 557.99 96.29L558.517 92.0921Z" fill="#4E2753"/>
<path d="M492.359 222.49C491.516 207.798 491.129 185.584 491.041 176.313C478.601 197.513 455.81 197.74 445.97 195.204C424.462 192.055 417.328 151.738 416.449 131.972C426.782 132.602 440.435 128.037 445.97 125.676C449.133 129.873 453.789 148.414 455.722 157.16C462.259 138.059 476.545 119.116 482.871 112.032C493.203 101.957 518.98 95.0658 530.314 92.8792C530.314 95.6078 533.651 98.2142 535.586 99.1761C545.285 102.534 554.916 95.8529 558.517 92.0921C616.503 105.735 625.201 203.95 622.302 251.351C615.976 254.29 607.368 254.674 603.852 254.5C602.27 251.263 597.315 237.708 590.146 209.372C582.977 181.036 574.858 161.358 571.695 155.061C567.478 163.877 572.049 196.69 574.858 211.995C534.795 228.158 503.166 225.726 492.359 222.49Z" fill="#EDE8E2"/>
<path d="M556.935 216.98C547.868 177.31 556.145 146.928 561.416 136.695C559.729 153.907 566.514 161.358 570.114 162.932C569.481 175.736 573.103 201.413 574.858 211.995C573.382 214.094 562.207 215.756 556.935 216.98Z" fill="#D8D2CA" fill-opacity="0.88"/>
<path d="M622.302 251.351C621.67 251.771 614.922 253.975 610.969 254.237C621.933 228.63 603.346 164.769 596.208 135.646C594.1 127.04 595.328 121.652 596.208 120.166C628.101 166.081 623.093 250.826 622.302 251.351Z" fill="#D8D2CA" fill-opacity="0.88"/>
<path d="M451.505 177.1C437.799 175.841 424.532 146.49 419.876 132.235C418.558 131.972 417.328 132.235 416.186 131.972C419.349 162.932 424.093 186.545 442.543 194.679C460.227 202.474 476.808 192.318 482.343 186.808L483.134 168.179C478.565 171.94 465.211 178.359 451.505 177.1Z" fill="#D8D2CA" fill-opacity="0.88"/>
<path d="M571.695 155.061C568.743 153.172 563.878 141.068 561.943 135.383C561.326 136.258 560.362 140.106 561.416 148.502C562.47 156.898 567.568 162.145 570.114 163.719C570.536 161.201 571.522 156.985 571.695 155.061Z" fill="#68406D"/>
<path d="M489.987 157.422C489.987 151.125 487.703 139.931 486.561 135.121C484.452 140.788 481.553 172.64 482.08 187.07C483.767 186.65 488.933 179.986 491.041 176.313C490.69 172.815 489.987 163.719 489.987 157.422Z" fill="#68406D"/>
<path d="M533.213 91.8297C531.105 91.8297 528.295 94.2787 527.151 95.5029C526.94 96.5524 528.469 100.838 529.26 102.849C529.471 101.38 530.404 100.313 530.841 99.9632C531.896 99.1236 531.985 99.6132 531.896 99.9632C521.774 134.596 519.244 177.712 519.244 194.941C520.087 207.115 522.407 219.254 523.461 223.802C524.094 223.802 525.833 223.627 526.624 223.54C523.197 201.763 521.352 195.204 523.988 161.358C526.097 134.281 531.896 110.021 534.531 101.275C534.795 100.576 535.427 99.1761 535.849 99.1761C536.271 99.1761 537.431 101.975 537.958 103.374C539.856 102.534 547.009 97.7766 550.346 95.5029C550.346 94.4534 548.411 92.0921 547.447 91.0426C546.603 91.0426 538.485 95.2405 534.531 97.3395C534.32 94.8207 533.567 92.6168 533.213 91.8297Z" fill="white"/>
<path d="M522.67 441.307V435.797C518.98 434.66 511.864 433.325 511.864 437.109C511.864 440.52 510.809 439.733 506.856 445.505L508.964 446.817L514.763 447.604L522.67 441.307Z" fill="#FFC86E"/>
<path d="M597.969 441.307V435.797C594.279 434.66 587.162 433.325 587.162 437.109C587.162 440.52 586.108 439.733 582.154 445.505L584.263 446.817L590.062 447.604L597.969 441.307Z" fill="#FFC86E"/>
<path d="M526.438 453.901C531.922 451.802 526.361 443.931 522.671 440.258C520.123 442.007 513.892 445.453 511.151 445.243C508.409 445.033 509.898 441.832 511.04 440.258C493.117 449.703 490.064 453.114 490.592 453.901C491.646 455.475 519.585 456.525 526.438 453.901Z" fill="#4E2753"/>
<path d="M601.738 453.901C607.22 451.802 601.659 443.931 597.969 440.258C595.423 442.007 589.192 445.453 586.45 445.243C583.709 445.033 585.196 441.832 586.34 440.258C568.416 449.703 565.364 453.114 565.891 453.901C566.946 455.475 594.885 456.525 601.738 453.901Z" fill="#4E2753"/>
<path d="M492.359 222.49C506.592 226.163 526.272 223.627 536.376 222.49C532.581 262.58 525.307 405.975 523.989 436.585H508.174C488.564 397.124 478.917 253.45 492.359 222.49Z" fill="#4E2753"/>
<path d="M530.578 223.277C547.974 219.604 557.99 216.456 574.858 211.995C590.409 255.811 601.743 405.975 600.425 436.585L582.239 437.634C563.525 371.517 537.167 291.231 530.578 223.277Z" fill="#4E2753"/>
<path d="M547.446 91.0426C547.657 88.9436 546.65 80.1059 546.914 76.9575C543.925 79.4935 537.531 86.8751 536.898 88.7641C536.266 90.6532 533.651 91.742 533.213 91.8297L534.531 97.3395L547.446 91.0426Z" fill="#FFC86E"/>
<path d="M536.635 91.9126C540.852 91.4928 543.309 88.5894 544.015 87.1899C541.553 87.4523 536.582 88.1869 536.371 89.0265C536.16 89.8661 535.058 90.955 534.531 91.305C534.531 91.9346 535.928 91.9126 536.635 91.9126Z" fill="#4E2753"/>
<path d="M539.27 89.0265C545.385 89.4463 547.183 79.7607 546.656 75.3003L534.004 73.9885C533.741 74.688 532.945 76.9575 531.89 79.0564C530.836 81.1554 531.1 84.4786 531.363 85.8781C531.448 86.7528 533.155 88.6067 539.27 89.0265Z" fill="#FFC86E"/>
<path d="M536.371 86.1404C541.221 89.4988 544.716 85.441 545.86 82.992C545.86 89.079 539.882 89.4636 536.898 89.0265C534.115 88.6193 530.361 86.6652 531.627 85.6157C532.892 84.5662 535.317 85.5281 536.371 86.1404Z" fill="#BC7729"/>
<path d="M533.472 79.0564C534.152 79.6315 536.645 79.4673 537.61 79.3875C537.958 79.3581 538.216 79.7055 536.45 81.3264C534.679 82.9473 533.208 82.2048 532.944 81.3264C532.944 80.3682 532.786 78.4813 533.472 79.0564Z" fill="white"/>
<path d="M546.914 84.0415C548.812 83.2019 548.764 78.1864 548.501 75.8251L546.387 75.3833C547.02 76.013 546.651 81.4178 546.914 84.0415Z" fill="#4E2753"/>
<path d="M542.17 79.0564C543.857 79.0564 544.626 76.4327 544.805 75.1209L542.96 74.8585C542.749 75.908 542.344 78.0946 542.17 79.0564Z" fill="#4E2753"/>
<path d="M534.531 69.2658C534.321 69.8955 534.094 72.6766 534.004 73.9885C535.059 74.4083 544.11 75.388 548.501 75.8251C548.923 75.6152 549.555 72.939 549.819 71.6272L553.773 57.4592C554.194 55.9899 553.773 55.0978 553.509 54.8354C548.87 51.0573 539.45 50.8124 535.322 51.1623C533.635 55.3602 534.094 64.9803 534.531 69.2658Z" fill="#F8F7F7"/>
<path d="M534.004 73.9885C537.378 74.6182 545.074 75.4751 548.501 75.8251C549.133 75.6152 549.645 73.1138 549.819 71.8896L549.555 71.6272L553.772 56.1473C553.562 55.5176 552.628 55.3602 552.191 55.3602L548.237 71.1024L546.392 70.5777L550.873 54.5731C550.24 53.9434 548.327 53.6112 547.447 53.5236L544.547 70.3153C543.915 70.5252 542.702 70.053 542.175 69.7906L545.338 52.9989C544.495 52.1593 542.528 52.2992 541.648 52.4741L540.594 69.5282C540.172 69.7381 538.311 69.4406 537.431 69.2659L539.012 52.4741C538.38 51.8444 536.814 52.2117 536.113 52.4741V69.2659H534.531C534.11 70.5252 534.004 72.939 534.004 73.9885Z" fill="#D8D2CA" fill-opacity="0.88"/>
<path d="M139.168 439.208V433.699C142.858 432.561 149.975 431.226 149.975 435.01C149.975 438.421 151.029 437.634 154.982 443.406L152.874 444.718L147.075 445.505L139.168 439.208Z" fill="#FFC86E"/>
<path d="M62.731 441.57V435.797C63.2581 433.436 72.4833 432.124 73.5376 435.797C74.381 438.736 77.5793 441.57 79.0727 442.619L75.9098 444.718L62.731 441.57Z" fill="#FFC86E"/>
<path d="M58.7774 451.277C53.295 449.178 59.0409 441.307 62.731 437.634C65.2787 439.383 71.3236 442.829 74.0647 442.619C76.8059 442.409 75.4707 439.208 74.3283 437.634C92.2515 447.079 95.1508 450.49 94.6236 451.277C93.5693 452.852 65.6303 453.901 58.7774 451.277Z" fill="#4E2753"/>
<path d="M135.104 451.277C129.621 449.178 135.478 441.307 139.168 437.634C141.716 439.383 147.65 442.829 150.391 442.619C153.132 442.409 151.644 439.208 150.502 437.634C168.425 447.079 171.477 450.49 170.95 451.277C169.896 452.852 141.957 453.901 135.104 451.277Z" fill="#4E2753"/>
<path d="M119.927 291.756C97.3648 292.386 80.127 287.821 74.3283 285.459C66.9482 317.363 61.7647 398.803 60.0952 435.535H79.5998C81.9193 432.806 107.451 338.546 119.927 291.756Z" fill="#4E2753"/>
<path d="M174.223 288.608C162.204 294.485 138.992 293.68 128.889 292.543C132.684 332.633 136.269 403.876 137.586 434.486H153.401C173.011 395.025 175.453 320.792 174.223 288.608Z" fill="#4E2753"/>
<path d="M80.7701 243.48C76.9746 246.838 77.6667 251.263 78.0184 252.663L42.6992 241.643C21.3496 234.385 -15.6037 210.893 7.38012 175.001C30.3639 139.109 87.419 121.39 113.074 117.017L128.625 124.626L130.206 118.591C174.065 126.148 209.279 162.145 221.403 179.199C229.838 183.607 270.956 168.442 290.46 160.308C291.936 167.655 295.82 171.24 297.577 172.115C262.152 211.786 232.913 220.479 222.721 219.867C202.268 220.706 179.583 199.227 170.797 188.382L169.479 211.208C168.425 215.826 173.608 265.607 176.332 289.92C136.479 299.155 90.4944 291.144 72.4833 285.984C71.8507 280.737 79.2482 249.34 83.0263 234.297C95.4671 186.441 91.1971 174.826 87.5071 175.001C49.8158 173.427 46.3893 183.659 44.2807 195.466C42.5938 204.911 69.3204 228.787 80.7701 243.48Z" fill="#EDE8E2"/>
<path d="M75.9098 161.096V173.689C61.3604 173.689 51.3972 180.686 48.2343 184.184C42.1194 190.481 44.105 198.527 45.8622 201.763C49.2886 209.109 70.1111 231.148 80.3906 243.48C50.8701 227.213 27.939 206.748 30.8383 183.397C33.1578 164.716 61.8522 160.746 75.9098 161.096Z" fill="#D8D2CA" fill-opacity="0.88"/>
<path d="M226.675 206.748C207.487 208.427 183.185 185.059 173.433 173.165L174.751 191.793C195.837 216.193 217.072 224.834 240.381 216.456C259.358 209.634 286.243 184.272 297.05 172.64C281.587 183.309 245.863 205.069 226.675 206.748Z" fill="#D8D2CA" fill-opacity="0.88"/>
<path d="M172.642 135.121C151.82 122.527 135.39 119.291 130.734 118.854C128.203 125.571 137.586 134.596 142.594 138.269C146.548 141.505 154.613 148.922 155.246 152.7C155.879 156.478 148.129 248.377 144.176 293.855C157.038 293.645 170.973 291.144 176.332 289.919C170.85 259.275 169.655 221.703 169.743 206.748C170.164 196.883 171.588 178.412 172.642 168.967L174.487 138.794L172.642 135.121Z" fill="#D8D2CA" fill-opacity="0.88"/>
<path d="M75.3826 173.952V154.799C80.2324 159.416 85.6621 169.491 87.7707 173.952H75.3826Z" fill="#68406D"/>
<path d="M141.54 136.957C145.318 140.281 153.928 148.764 154.982 151.913C155.07 159.958 152.979 199.664 143.912 294.117" stroke="#68406D" stroke-width="3"/>
<path d="M170.797 187.857C170.586 185.339 171.939 174.214 172.642 168.967C173.485 170.646 175.102 185.758 175.805 193.105L170.797 187.857Z" fill="#68406D"/>
<path d="M88.5614 239.282C78.0184 242.011 76.4369 248.99 76.9641 252.138C82.4992 257.123 95.1508 258.173 96.7322 254.762C97.9974 252.033 93.9209 246.454 91.7243 244.005C96.9958 247.783 98.6653 247.678 98.8409 247.153C97.3648 242.325 91.3727 239.894 88.5614 239.282Z" fill="#FFC86E"/>
<path d="M284.662 175.526C284.872 175.106 288.088 172.727 289.67 171.59C293.36 167.655 330.26 161.62 329.469 160.833C328.837 160.203 326.395 157.947 325.252 156.898C310.053 156.723 279.127 158.629 277.018 167.655C274.382 178.937 284.398 176.051 284.662 175.526Z" fill="#FF6B3D"/>
<path d="M336.059 164.506C330.787 163.037 326.658 158.822 325.252 156.898L406.961 140.106C409.913 148.502 395.188 154.799 387.456 156.898C355.194 164.244 339.749 165.031 336.059 164.506Z" fill="#502854"/>
<path d="M325.252 156.898C323.987 154.379 328.064 152 330.26 151.125C340.171 146.508 362.505 141.855 372.432 140.106C384.381 138.532 408.015 136.328 406.961 140.106C405.643 144.829 375.595 154.012 354.773 156.898C338.115 159.206 328.152 157.859 325.252 156.898Z" fill="#875E80"/>
<path d="M377.967 144.304C385.98 138.846 388.51 127.862 388.774 123.052C388.563 119.274 390.619 119.029 391.673 119.379C392.112 119.379 393.149 120.481 393.782 124.888C394.415 129.296 396.154 127.25 396.945 125.675C397.296 125.063 398.368 123.944 399.844 124.364C401.32 124.783 399.932 128.912 399.053 130.923C398.702 131.972 398.21 134.019 399.053 133.809C399.897 133.599 401.338 134.246 401.953 134.596C404.272 137.115 400.987 139.843 399.053 140.893C393.343 144.041 381.13 150.076 377.967 149.026C374.805 147.977 376.65 145.441 377.967 144.304Z" fill="#FFAB5E"/>
<path d="M352.928 128.562C348.921 126.463 350.556 122.964 351.873 121.478C353.56 119.169 356.091 118.766 357.145 118.854C362.838 120.113 362.68 124.276 361.889 126.2C360.571 127.862 356.934 130.661 352.928 128.562Z" fill="#FF683A"/>
<path d="M374.277 124.626C375.121 121.687 374.629 117.979 374.277 116.493C377.089 114.656 382.764 111.35 382.975 112.819C383.186 114.289 381.657 117.105 380.867 118.329C380.076 119.466 378.758 122.002 379.812 123.052C380.867 124.101 380.955 124.538 380.867 124.626C378.319 125.85 373.434 127.565 374.277 124.626Z" fill="#835B7E"/>
<path d="M366.37 110.196C366.159 106.627 368.742 105.91 370.06 105.998C370.851 105.998 371.378 106.785 372.169 106.785C372.801 106.785 373.311 105.91 373.487 105.473C373.662 105.211 374.33 104.896 375.595 105.735C377.177 106.785 377.44 105.473 377.44 104.686C377.44 104.056 379.373 102.675 380.34 102.062C382.87 100.383 385.963 102.412 387.193 103.636C388.159 104.598 389.776 107.205 388.51 109.933C387.245 112.662 383.766 113.169 382.185 113.082C381.341 113.082 380.779 113.606 380.603 113.869C379.022 117.28 374.541 117.28 374.014 116.493C373.487 115.705 372.432 115.968 372.169 116.493C371.958 116.912 370.499 116.843 369.797 116.755C366.001 115.915 366.458 114.656 367.161 114.131C367.776 113.956 368.795 113.449 367.952 112.819C367.108 112.19 366.546 110.808 366.37 110.196Z" fill="#4E2753"/>
<path d="M297.577 172.377C296.101 172.377 295.029 170.628 294.678 169.754C309.965 165.031 310.492 162.407 312.073 160.833C313.339 159.574 314.182 161.358 314.446 162.407C316.291 166.868 299.422 172.377 297.577 172.377Z" fill="#FFC86E"/>
<path d="M297.84 152.7C295.732 151.86 292.393 156.898 290.987 159.521C294.572 159.941 298.104 159.347 299.422 158.997C304.898 160.676 307.151 158.997 307.593 157.947C307.681 157.51 307.54 156.583 306.275 156.373C304.693 156.111 300.476 153.749 297.84 152.7Z" fill="#FFC86E"/>
<path d="M141.804 216.193C143.551 216.193 144.967 214.784 144.967 213.045C144.967 211.306 143.551 209.896 141.804 209.896C140.057 209.896 138.641 211.306 138.641 213.045C138.641 214.784 140.057 216.193 141.804 216.193Z" fill="#4E2753"/>
<path d="M118.082 215.144C119.829 215.144 121.245 213.734 121.245 211.995C121.245 210.257 119.829 208.847 118.082 208.847C116.335 208.847 114.919 210.257 114.919 211.995C114.919 213.734 116.335 215.144 118.082 215.144Z" fill="#4E2753"/>
<path d="M146.021 186.283C147.768 186.283 149.184 184.873 149.184 183.135C149.184 181.396 147.768 179.986 146.021 179.986C144.274 179.986 142.858 181.396 142.858 183.135C142.858 184.873 144.274 186.283 146.021 186.283Z" fill="#4E2753"/>
<path d="M121.245 189.432C122.992 189.432 124.408 188.022 124.408 186.283C124.408 184.544 122.992 183.135 121.245 183.135C119.498 183.135 118.082 184.544 118.082 186.283C118.082 188.022 119.498 189.432 121.245 189.432Z" fill="#4E2753"/>
<path d="M147.075 161.62C148.822 161.62 150.238 160.211 150.238 158.472C150.238 156.733 148.822 155.323 147.075 155.323C145.328 155.323 143.912 156.733 143.912 158.472C143.912 160.211 145.328 161.62 147.075 161.62Z" fill="#4E2753"/>
<path d="M122.826 164.769C124.573 164.769 125.989 163.359 125.989 161.62C125.989 159.881 124.573 158.472 122.826 158.472C121.079 158.472 119.663 159.881 119.663 161.62C119.663 163.359 121.079 164.769 122.826 164.769Z" fill="#4E2753"/>
<path d="M114.128 115.968C113.917 113.869 114.392 105.473 114.128 102.325C117.116 104.861 123.512 112.242 124.144 114.131C124.777 116.02 125.814 116.667 126.253 116.755L126.516 122.265L114.128 115.968Z" fill="#FFC86E"/>
<path d="M112.81 123.314C110.491 120.376 112.722 117.192 114.128 115.968C115.815 116.388 122.914 119.991 126.253 121.74V116.755C128.15 116.545 130.206 117.892 130.997 118.591C131.419 120.69 131.524 123.314 131.524 124.364C133.984 125.238 139.379 127.774 141.277 130.923C143.174 134.071 142.067 141.505 141.277 144.829C141.487 139.791 134.863 133.984 131.524 131.71C130.048 136.538 128.625 143.691 128.098 146.665C125.357 143.307 125.726 133.022 126.253 128.299C122.738 127.862 115.13 126.253 112.81 123.314Z" fill="#FF693C"/>
<path d="M124.408 117.28C120.19 116.86 117.73 113.956 117.028 112.557C119.488 112.819 124.46 113.554 124.671 114.394C124.882 115.233 125.726 116.405 126.253 116.755C126.253 117.385 125.11 117.28 124.408 117.28Z" fill="#4E2753"/>
<path d="M121.772 114.394C115.657 114.813 113.865 105.473 114.392 101.013L127.043 99.7008C127.307 100.4 128.098 102.325 129.152 104.423C130.206 106.522 129.943 109.846 129.679 111.245C129.591 112.12 127.887 113.974 121.772 114.394Z" fill="#FFC86E"/>
<path d="M124.671 111.507C119.821 114.866 116.325 110.808 115.183 108.359C115.183 114.446 121.157 114.831 124.144 114.394C126.925 113.986 130.681 112.032 129.416 110.983C128.15 109.933 125.726 110.895 124.671 111.507Z" fill="#BC7729"/>
<path d="M127.571 104.423C126.888 104.999 124.394 104.834 123.431 104.755C123.081 104.725 122.823 105.073 124.592 106.693C126.361 108.314 127.834 107.572 128.098 106.693C128.098 105.735 128.253 103.848 127.571 104.423Z" fill="white"/>
<path d="M114.128 109.409C112.23 108.569 112.283 103.636 112.547 101.275L114.655 100.75C114.023 101.38 114.392 106.785 114.128 109.409Z" fill="#4E2753"/>
<path d="M118.873 104.423C117.186 104.423 116.412 101.8 116.237 100.488L118.082 100.226C118.293 101.275 118.697 103.462 118.873 104.423Z" fill="#4E2753"/>
<path d="M127.043 99.7008C122.615 100.54 115.534 101.1 112.547 101.275C111.492 99.3859 111.404 97.3395 111.492 96.5523C104.903 97.0771 103.322 92.6168 103.322 91.5673C103.322 90.5178 104.376 88.1565 106.485 88.1565C108.171 88.1565 109.647 87.2817 110.175 86.8446C111.651 84.9556 115.007 84.658 116.5 84.7457C117.555 84.9556 120.981 84.4833 122.563 84.2209C124.935 83.9586 129.679 84.1685 129.679 87.107C129.679 90.0456 127.571 92.7044 126.516 93.6663L127.043 99.7008Z" fill="#EDE8E2"/>
<path d="M126.78 91.5673C125.338 92.0459 119.751 93.841 117.028 94.4534C118.925 95.5029 124.144 95.0658 126.516 94.7158C127.131 93.3163 128.361 91.0426 126.78 91.5673Z" fill="#4E2753"/>
</svg>
