<svg width="183" height="25" viewBox="0 0 183 25" fill="none" xmlns="http://www.w3.org/2000/svg">
<path d="M15.676 2.184C15.844 2.448 15.988 2.808 16.108 3.264C16.252 3.696 16.324 4.152 16.324 4.632C16.324 5.568 16.12 6.24 15.712 6.648C15.328 7.032 14.8 7.224 14.128 7.224H6.568V11.292H14.452C14.644 11.556 14.8 11.904 14.92 12.336C15.064 12.768 15.136 13.224 15.136 13.704C15.136 14.616 14.932 15.276 14.524 15.684C14.14 16.068 13.612 16.26 12.94 16.26H6.64V23.856C6.376 23.928 5.956 24 5.38 24.072C4.828 24.144 4.276 24.18 3.724 24.18C3.172 24.18 2.68 24.132 2.248 24.036C1.84 23.964 1.492 23.82 1.204 23.604C0.916 23.388 0.7 23.088 0.556 22.704C0.412 22.32 0.34 21.816 0.34 21.192V5.532C0.34 4.5 0.64 3.684 1.24 3.084C1.84 2.484 2.656 2.184 3.688 2.184H15.676ZM36.2964 15.252C36.2964 16.74 36.0684 18.072 35.6124 19.248C35.1564 20.4 34.5084 21.372 33.6684 22.164C32.8524 22.956 31.8684 23.556 30.7164 23.964C29.5644 24.372 28.2804 24.576 26.8644 24.576C25.4484 24.576 24.1644 24.36 23.0124 23.928C21.8604 23.496 20.8644 22.884 20.0244 22.092C19.2084 21.276 18.5724 20.292 18.1164 19.14C17.6604 17.988 17.4324 16.692 17.4324 15.252C17.4324 13.836 17.6604 12.552 18.1164 11.4C18.5724 10.248 19.2084 9.276 20.0244 8.484C20.8644 7.668 21.8604 7.044 23.0124 6.612C24.1644 6.18 25.4484 5.964 26.8644 5.964C28.2804 5.964 29.5644 6.192 30.7164 6.648C31.8684 7.08 32.8524 7.704 33.6684 8.52C34.5084 9.312 35.1564 10.284 35.6124 11.436C36.0684 12.588 36.2964 13.86 36.2964 15.252ZM23.6964 15.252C23.6964 16.716 23.9724 17.844 24.5244 18.636C25.1004 19.404 25.8924 19.788 26.9004 19.788C27.9084 19.788 28.6764 19.392 29.2044 18.6C29.7564 17.808 30.0324 16.692 30.0324 15.252C30.0324 13.812 29.7564 12.708 29.2044 11.94C28.6524 11.148 27.8724 10.752 26.8644 10.752C25.8564 10.752 25.0764 11.148 24.5244 11.94C23.9724 12.708 23.6964 13.812 23.6964 15.252ZM57.3902 15.252C57.3902 16.74 57.1622 18.072 56.7062 19.248C56.2502 20.4 55.6022 21.372 54.7622 22.164C53.9462 22.956 52.9622 23.556 51.8102 23.964C50.6582 24.372 49.3742 24.576 47.9582 24.576C46.5422 24.576 45.2582 24.36 44.1062 23.928C42.9542 23.496 41.9582 22.884 41.1182 22.092C40.3022 21.276 39.6662 20.292 39.2102 19.14C38.7542 17.988 38.5262 16.692 38.5262 15.252C38.5262 13.836 38.7542 12.552 39.2102 11.4C39.6662 10.248 40.3022 9.276 41.1182 8.484C41.9582 7.668 42.9542 7.044 44.1062 6.612C45.2582 6.18 46.5422 5.964 47.9582 5.964C49.3742 5.964 50.6582 6.192 51.8102 6.648C52.9622 7.08 53.9462 7.704 54.7622 8.52C55.6022 9.312 56.2502 10.284 56.7062 11.436C57.1622 12.588 57.3902 13.86 57.3902 15.252ZM44.7902 15.252C44.7902 16.716 45.0662 17.844 45.6182 18.636C46.1942 19.404 46.9862 19.788 47.9942 19.788C49.0022 19.788 49.7702 19.392 50.2982 18.6C50.8502 17.808 51.1262 16.692 51.1262 15.252C51.1262 13.812 50.8502 12.708 50.2982 11.94C49.7462 11.148 48.9662 10.752 47.9582 10.752C46.9502 10.752 46.1702 11.148 45.6182 11.94C45.0662 12.708 44.7902 13.812 44.7902 15.252ZM59.6199 15.252C59.6199 13.668 59.8599 12.3 60.3399 11.148C60.8199 9.972 61.4799 9 62.3199 8.232C63.1839 7.464 64.1799 6.9 65.3079 6.54C66.4599 6.156 67.6959 5.964 69.0159 5.964C69.4959 5.964 69.9639 6.012 70.4199 6.108C70.8759 6.18 71.2479 6.276 71.5359 6.396V0.563999C71.7759 0.491999 72.1599 0.419999 72.6879 0.348C73.2159 0.252 73.7559 0.204 74.3079 0.204C74.8359 0.204 75.3039 0.239999 75.7119 0.311998C76.1439 0.383999 76.5039 0.527999 76.7919 0.743999C77.0799 0.959999 77.2959 1.26 77.4399 1.644C77.5839 2.004 77.6559 2.484 77.6559 3.084V20.148C77.6559 21.276 77.1279 22.176 76.0719 22.848C75.3759 23.304 74.4759 23.7 73.3719 24.036C72.2679 24.396 70.9959 24.576 69.5559 24.576C67.9959 24.576 66.5919 24.36 65.3439 23.928C64.1199 23.496 63.0759 22.872 62.2119 22.056C61.3719 21.24 60.7239 20.268 60.2679 19.14C59.8359 17.988 59.6199 16.692 59.6199 15.252ZM69.8439 10.752C68.5479 10.752 67.5519 11.124 66.8559 11.868C66.1599 12.612 65.8119 13.74 65.8119 15.252C65.8119 16.74 66.1359 17.868 66.7839 18.636C67.4319 19.38 68.3679 19.752 69.5919 19.752C70.0239 19.752 70.4079 19.692 70.7439 19.572C71.1039 19.428 71.3799 19.272 71.5719 19.104V11.184C71.0919 10.896 70.5159 10.752 69.8439 10.752ZM99.5777 15.252C99.5777 16.74 99.3497 18.072 98.8937 19.248C98.4377 20.4 97.7897 21.372 96.9497 22.164C96.1337 22.956 95.1497 23.556 93.9977 23.964C92.8457 24.372 91.5617 24.576 90.1457 24.576C88.7297 24.576 87.4457 24.36 86.2937 23.928C85.1417 23.496 84.1457 22.884 83.3057 22.092C82.4897 21.276 81.8537 20.292 81.3977 19.14C80.9417 17.988 80.7137 16.692 80.7137 15.252C80.7137 13.836 80.9417 12.552 81.3977 11.4C81.8537 10.248 82.4897 9.276 83.3057 8.484C84.1457 7.668 85.1417 7.044 86.2937 6.612C87.4457 6.18 88.7297 5.964 90.1457 5.964C91.5617 5.964 92.8457 6.192 93.9977 6.648C95.1497 7.08 96.1337 7.704 96.9497 8.52C97.7897 9.312 98.4377 10.284 98.8937 11.436C99.3497 12.588 99.5777 13.86 99.5777 15.252ZM86.9777 15.252C86.9777 16.716 87.2537 17.844 87.8057 18.636C88.3817 19.404 89.1737 19.788 90.1817 19.788C91.1897 19.788 91.9577 19.392 92.4857 18.6C93.0377 17.808 93.3137 16.692 93.3137 15.252C93.3137 13.812 93.0377 12.708 92.4857 11.94C91.9337 11.148 91.1537 10.752 90.1457 10.752C89.1377 10.752 88.3577 11.148 87.8057 11.94C87.2537 12.708 86.9777 13.812 86.9777 15.252ZM108.683 23.964C108.443 24.036 108.059 24.108 107.531 24.18C107.027 24.252 106.499 24.288 105.947 24.288C105.419 24.288 104.939 24.252 104.507 24.18C104.099 24.108 103.751 23.964 103.463 23.748C103.175 23.532 102.947 23.244 102.779 22.884C102.635 22.5 102.563 22.008 102.563 21.408V10.608C102.563 10.056 102.659 9.588 102.851 9.204C103.067 8.796 103.367 8.436 103.751 8.124C104.135 7.812 104.603 7.536 105.155 7.296C105.731 7.032 106.343 6.804 106.991 6.612C107.639 6.42 108.311 6.276 109.007 6.18C109.703 6.06 110.399 6 111.095 6C112.247 6 113.159 6.228 113.831 6.684C114.503 7.116 114.839 7.836 114.839 8.844C114.839 9.18 114.791 9.516 114.695 9.852C114.599 10.164 114.479 10.452 114.335 10.716C113.831 10.716 113.315 10.74 112.787 10.788C112.259 10.836 111.743 10.908 111.239 11.004C110.735 11.1 110.255 11.208 109.799 11.328C109.367 11.424 108.995 11.544 108.683 11.688V23.964ZM124.325 20.112C124.733 20.112 125.177 20.076 125.657 20.004C126.161 19.908 126.533 19.788 126.773 19.644V16.764L124.181 16.98C123.509 17.028 122.957 17.172 122.525 17.412C122.093 17.652 121.877 18.012 121.877 18.492C121.877 18.972 122.057 19.368 122.417 19.68C122.801 19.968 123.437 20.112 124.325 20.112ZM124.037 5.964C125.333 5.964 126.509 6.096 127.565 6.36C128.645 6.624 129.557 7.032 130.301 7.584C131.069 8.112 131.657 8.796 132.065 9.636C132.473 10.452 132.677 11.424 132.677 12.552V20.616C132.677 21.24 132.497 21.756 132.137 22.164C131.801 22.548 131.393 22.884 130.913 23.172C129.353 24.108 127.157 24.576 124.325 24.576C123.053 24.576 121.901 24.456 120.869 24.216C119.861 23.976 118.985 23.616 118.241 23.136C117.521 22.656 116.957 22.044 116.549 21.3C116.165 20.556 115.973 19.692 115.973 18.708C115.973 17.052 116.465 15.78 117.449 14.892C118.433 14.004 119.957 13.452 122.021 13.236L126.737 12.732V12.48C126.737 11.784 126.425 11.292 125.801 11.004C125.201 10.692 124.325 10.536 123.173 10.536C122.261 10.536 121.373 10.632 120.509 10.824C119.645 11.016 118.865 11.256 118.169 11.544C117.857 11.328 117.593 11.004 117.377 10.572C117.161 10.116 117.053 9.648 117.053 9.168C117.053 8.544 117.197 8.052 117.485 7.692C117.797 7.308 118.265 6.984 118.889 6.72C119.585 6.456 120.401 6.264 121.337 6.144C122.297 6.024 123.197 5.964 124.037 5.964ZM144.807 5.964C145.791 5.964 146.751 6.108 147.687 6.396C148.647 6.66 149.475 7.068 150.171 7.62C150.891 7.14 151.695 6.744 152.583 6.432C153.495 6.12 154.587 5.964 155.859 5.964C156.771 5.964 157.659 6.084 158.523 6.324C159.411 6.564 160.191 6.948 160.863 7.476C161.559 7.98 162.111 8.664 162.519 9.528C162.927 10.368 163.131 11.4 163.131 12.624V23.964C162.891 24.036 162.507 24.108 161.979 24.18C161.475 24.252 160.947 24.288 160.395 24.288C159.867 24.288 159.387 24.252 158.955 24.18C158.547 24.108 158.199 23.964 157.911 23.748C157.623 23.532 157.395 23.244 157.227 22.884C157.083 22.5 157.011 22.008 157.011 21.408V12.804C157.011 12.084 156.807 11.568 156.399 11.256C155.991 10.92 155.439 10.752 154.743 10.752C154.407 10.752 154.047 10.836 153.663 11.004C153.279 11.148 152.991 11.304 152.799 11.472C152.823 11.568 152.835 11.664 152.835 11.76C152.835 11.832 152.835 11.904 152.835 11.976V23.964C152.571 24.036 152.175 24.108 151.647 24.18C151.143 24.252 150.627 24.288 150.099 24.288C149.571 24.288 149.091 24.252 148.659 24.18C148.251 24.108 147.903 23.964 147.615 23.748C147.327 23.532 147.099 23.244 146.931 22.884C146.787 22.5 146.715 22.008 146.715 21.408V12.804C146.715 12.084 146.487 11.568 146.031 11.256C145.599 10.92 145.071 10.752 144.447 10.752C144.015 10.752 143.643 10.824 143.331 10.968C143.019 11.088 142.755 11.208 142.539 11.328V23.964C142.299 24.036 141.915 24.108 141.387 24.18C140.883 24.252 140.355 24.288 139.803 24.288C139.275 24.288 138.795 24.252 138.363 24.18C137.955 24.108 137.607 23.964 137.319 23.748C137.031 23.532 136.803 23.244 136.635 22.884C136.491 22.5 136.419 22.008 136.419 21.408V10.536C136.419 9.888 136.551 9.372 136.815 8.988C137.103 8.604 137.487 8.244 137.967 7.908C138.783 7.332 139.791 6.864 140.991 6.504C142.215 6.144 143.487 5.964 144.807 5.964ZM174.352 20.112C174.76 20.112 175.204 20.076 175.684 20.004C176.188 19.908 176.56 19.788 176.8 19.644V16.764L174.208 16.98C173.536 17.028 172.984 17.172 172.552 17.412C172.12 17.652 171.904 18.012 171.904 18.492C171.904 18.972 172.084 19.368 172.444 19.68C172.828 19.968 173.464 20.112 174.352 20.112ZM174.064 5.964C175.36 5.964 176.536 6.096 177.592 6.36C178.672 6.624 179.584 7.032 180.328 7.584C181.096 8.112 181.684 8.796 182.092 9.636C182.5 10.452 182.704 11.424 182.704 12.552V20.616C182.704 21.24 182.524 21.756 182.164 22.164C181.828 22.548 181.42 22.884 180.94 23.172C179.38 24.108 177.184 24.576 174.352 24.576C173.08 24.576 171.928 24.456 170.896 24.216C169.888 23.976 169.012 23.616 168.268 23.136C167.548 22.656 166.984 22.044 166.576 21.3C166.192 20.556 166 19.692 166 18.708C166 17.052 166.492 15.78 167.476 14.892C168.46 14.004 169.984 13.452 172.048 13.236L176.764 12.732V12.48C176.764 11.784 176.452 11.292 175.828 11.004C175.228 10.692 174.352 10.536 173.2 10.536C172.288 10.536 171.4 10.632 170.536 10.824C169.672 11.016 168.892 11.256 168.196 11.544C167.884 11.328 167.62 11.004 167.404 10.572C167.188 10.116 167.08 9.648 167.08 9.168C167.08 8.544 167.224 8.052 167.512 7.692C167.824 7.308 168.292 6.984 168.916 6.72C169.612 6.456 170.428 6.264 171.364 6.144C172.324 6.024 173.224 5.964 174.064 5.964Z" fill="#312F2F"/>
</svg>
