<svg width="20" height="20" viewBox="0 0 20 20" fill="none" xmlns="http://www.w3.org/2000/svg">
<path d="M19.9097 7.60204C19.6695 6.8655 19.0136 6.38959 18.2388 6.38959H13.2427L11.6694 1.61172C11.4276 0.877251 10.7731 0.403839 10.0005 0.403839C9.99809 0.403839 9.99555 0.403839 9.99309 0.403878C9.21741 0.406925 8.56316 0.886195 8.32636 1.62488L6.79891 6.38959H1.7612C0.984513 6.38959 0.328118 6.8671 0.08901 7.60606C-0.150137 8.34502 0.102094 9.11656 0.731618 9.57157L4.80766 12.5178L3.23874 17.2824C2.99592 18.0198 3.24393 18.7925 3.87056 19.2508C4.18529 19.481 4.54653 19.5961 4.908 19.5961C5.26619 19.5961 5.62458 19.483 5.93774 19.2566L10.0209 16.3053L14.0555 19.2516C14.6814 19.7087 15.492 19.7109 16.1205 19.2574C16.749 18.8038 17.0022 18.0338 16.7657 17.2956L15.2339 12.5178L19.2753 9.56654C19.901 9.10964 20.1501 8.33854 19.9097 7.60204ZM18.5843 8.62026L13.86 12.0703L15.6498 17.6533C15.7703 18.0291 15.5157 18.2488 15.4348 18.3072C15.3539 18.3656 15.0651 18.538 14.7464 18.3053L10.0243 14.8569L5.25131 18.307C4.931 18.5385 4.64296 18.364 4.56227 18.305C4.48161 18.246 4.22801 18.0243 4.35167 17.6489L6.18865 12.0702L1.41801 8.62198C1.0975 8.39029 1.17304 8.0619 1.20382 7.96679C1.2346 7.87169 1.36575 7.5613 1.7612 7.5613H7.65376L9.44219 1.98257C9.56275 1.60649 9.8979 1.57598 9.99777 1.57555H9.9998C10.1021 1.57555 10.4338 1.60559 10.5566 1.97819L12.395 7.5613H18.2389C18.6334 7.5613 18.7649 7.87063 18.7959 7.96547C18.8268 8.0603 18.9029 8.38767 18.5843 8.62026Z" fill="black"/>
</svg>
